<?xml version="1.0" encoding="UTF-8" standalone="no"?>
<!-- Created with Inkscape (http://www.inkscape.org/) -->

<svg
   width="2160"
   height="1080"
   viewBox="0 0 571.49999 285.75014"
   version="1.1"
   id="svg1"
   xml:space="preserve"
   xmlns:xlink="http://www.w3.org/1999/xlink"
   xmlns="http://www.w3.org/2000/svg"
   xmlns:svg="http://www.w3.org/2000/svg"
   xmlns:rdf="http://www.w3.org/1999/02/22-rdf-syntax-ns#"
   xmlns:cc="http://creativecommons.org/ns#"
   xmlns:dc="http://purl.org/dc/elements/1.1/"><title
     id="title20">ALVR Logo</title><defs
     id="defs1"><linearGradient
       id="linearGradient20"><stop
         style="stop-color:#3ed2e3;stop-opacity:1;"
         offset="0"
         id="stop19" /><stop
         style="stop-color:#279ed4;stop-opacity:1;"
         offset="1"
         id="stop20" /></linearGradient><linearGradient
       id="linearGradient17"><stop
         style="stop-color:#3ed2e3;stop-opacity:1;"
         offset="0"
         id="stop16" /><stop
         style="stop-color:#2192d1;stop-opacity:1;"
         offset="1"
         id="stop17" /></linearGradient><linearGradient
       id="linearGradient5"><stop
         style="stop-color:#3ed2e3;stop-opacity:1;"
         offset="0"
         id="stop5" /><stop
         style="stop-color:#1d89cf;stop-opacity:1;"
         offset="1"
         id="stop6" /></linearGradient><clipPath
       clipPathUnits="userSpaceOnUse"
       id="clipPath15"><path
         style="fill:none;fill-opacity:1;stroke-width:15.875;stroke-dasharray:none"
         d="m 341.45135,55.951062 36.46809,34.719636 -21.98077,53.453242 20.48209,54.70216 -36.21832,34.46985 -2.24803,48.95717 225.55271,-0.49956 L 557.51238,5.4951939 310.22866,7.2436642 Z"
         id="path16" /></clipPath><linearGradient
       xlink:href="#linearGradient5"
       id="linearGradient6"
       x1="307.78638"
       y1="144.12395"
       x2="554.95905"
       y2="144.12395"
       gradientUnits="userSpaceOnUse" /><linearGradient
       xlink:href="#linearGradient17"
       id="linearGradient15"
       gradientUnits="userSpaceOnUse"
       x1="307.78638"
       y1="144.12395"
       x2="554.95905"
       y2="144.12395"
       gradientTransform="matrix(0.73927686,0,0,0.73927686,112.46885,37.576448)" /><linearGradient
       xlink:href="#linearGradient20"
       id="linearGradient16"
       gradientUnits="userSpaceOnUse"
       gradientTransform="matrix(0.48821952,0,0,0.48821952,220.76814,73.759823)"
       x1="307.78638"
       y1="144.12395"
       x2="554.95905"
       y2="144.12395" /></defs><metadata
     id="metadata1"><rdf:RDF><cc:Work
         rdf:about=""><dc:format>image/svg+xml</dc:format><dc:type
           rdf:resource="http://purl.org/dc/dcmitype/StillImage" /><dc:title>ALVR Logo</dc:title><dc:date>01/12/24</dc:date><dc:creator><cc:Agent><dc:title>Issac Dowling</dc:title></cc:Agent></dc:creator><dc:publisher><cc:Agent><dc:title>ALVR</dc:title></cc:Agent></dc:publisher></cc:Work></rdf:RDF></metadata><rect
     style="display:inline;opacity:1;fill:none;fill-opacity:1;stroke:none;stroke-width:143.414;stroke-dasharray:none;stroke-opacity:1"
     id="rect20"
     height="285.82809"
     x="0.026301181"
     y="-0.077999696"
     ry="0"
     width="571.47693" /><g
     id="g22"
     clip-path="url(#clipPath15)"
     style="display:inline"><circle
       style="display:inline;opacity:1;fill:none;stroke:url(#linearGradient6);stroke-width:16.4055;stroke-dasharray:none"
       id="path5"
       cx="431.37271"
       cy="144.12395"
       r="115.38358" /><circle
       style="opacity:1;fill:none;stroke:url(#linearGradient15);stroke-width:15.875;stroke-dasharray:none"
       id="circle15"
       cx="431.37271"
       cy="144.12395"
       r="85.300415" /><circle
       style="opacity:1;fill:none;stroke:url(#linearGradient16);stroke-width:15.5123;stroke-dasharray:none"
       id="circle16"
       cx="431.37271"
       cy="144.12395"
       r="56.33252" /></g><path
     d="m 87.178192,195.69743 q -2.458863,-6.50875 -4.628448,-12.72823 -2.169586,-6.36412 -4.48381,-12.87287 H 32.649286 l -9.112258,25.6011 H 8.9284887 q 5.7855603,-15.91029 10.8479253,-29.36172 5.062366,-13.59606 9.835453,-25.74574 4.917726,-12.14968 9.690813,-23.14224 4.773088,-11.1372 9.980092,-21.985129 h 12.872871 q 5.207005,10.847929 9.980092,21.985129 4.773087,10.99256 9.546174,23.14224 4.917727,12.14968 9.980092,25.74574 5.062365,13.45143 10.847929,29.36172 z m -13.16215,-37.17222 q -4.628448,-12.5836 -9.256896,-24.29935 -4.48381,-11.8604 -9.401536,-22.70833 -5.062365,10.84793 -9.690813,22.70833 -4.48381,11.71575 -8.967619,24.29935 z m 102.404428,25.02255 v 12.14967 H 116.10601 V 95.462601 h 14.02998 v 88.085159 z m 81.28694,-88.085159 q -5.49628,15.910289 -10.55864,29.506359 -4.91773,13.45143 -9.69082,25.6011 -4.77309,12.14968 -9.54617,23.28688 -4.62845,10.99257 -9.54618,21.84049 h -13.16215 q -4.91772,-10.84792 -9.69081,-21.84049 -4.62845,-11.1372 -9.54618,-23.28688 -4.77308,-12.14967 -9.83545,-25.6011 -5.06236,-13.59607 -10.41401,-29.506359 h 15.47638 q 7.8105,22.852959 15.33173,43.970259 7.52123,21.11729 15.47638,39.63109 7.95514,-18.36916 15.47637,-39.48645 7.52123,-21.26194 15.1871,-44.114899 z m 62.91799,58.289519 q 2.31423,2.89278 5.78556,7.66587 3.61598,4.62845 7.37659,10.41401 3.76062,5.64092 7.37659,11.8604 3.76061,6.21947 6.36412,12.00503 h -15.33174 q -2.89278,-5.49628 -6.36411,-11.1372 -3.3267,-5.64092 -6.79804,-10.70329 -3.47133,-5.207 -6.94267,-9.69081 -3.3267,-4.48381 -6.07484,-7.81051 -1.88031,0.14464 -3.90525,0.14464 -1.88031,0 -3.90526,0 h -12.58359 v 39.19717 H 271.59278 V 96.908991 q 5.9302,-1.44639 13.16215,-1.880307 7.37659,-0.578556 13.45142,-0.578556 21.1173,0 32.10986,7.955142 11.13721,7.95515 11.13721,23.7208 0,9.98009 -5.35165,17.0674 -5.207,7.08732 -15.47637,10.55865 z m -21.26193,-47.00768 q -8.96762,0 -13.74071,0.43392 v 37.75078 h 9.98009 q 7.23195,0 13.01751,-0.72319 5.78556,-0.7232 9.69082,-2.74814 4.04989,-2.02495 6.21947,-5.64093 2.16959,-3.76061 2.16959,-9.83545 0,-5.64092 -2.16959,-9.40153 -2.16958,-3.76062 -5.93019,-5.9302 -3.61598,-2.16959 -8.67835,-3.03742 -4.91772,-0.86784 -10.55864,-0.86784 z"
     id="text16"
     style="font-size:144.639px;font-family:Ubuntu;-inkscape-font-specification:Ubuntu;fill:#ffffff;fill-opacity:1;stroke-width:15.875"
     aria-label="ALVR" /></svg>
