# Blender v2.80 (sub 60) OBJ File: ''
# www.blender.org
mtllib oculus_quest_controller.mtl
v -0.009501 -0.007038 0.018449
v -0.014179 -0.007042 0.024028
v -0.013614 -0.007042 0.025579
v -0.012553 -0.007041 0.026843
v -0.011123 -0.007040 0.027667
v -0.005383 -0.007036 0.025575
v -0.007872 -0.007038 0.027666
v -0.013616 -0.007042 0.020826
v -0.011127 -0.007040 0.018736
v -0.012556 -0.007041 0.019562
v -0.004820 -0.007035 0.022374
v -0.007876 -0.007037 0.018735
v -0.006446 -0.007036 0.019559
v -0.005385 -0.007036 0.020823
v -0.014180 -0.007042 0.022378
v -0.004819 -0.007035 0.024024
v -0.009498 -0.007039 0.027953
v -0.006443 -0.007037 0.026840
v -0.004821 -0.005974 0.022374
v -0.007877 -0.005976 0.018735
v -0.006447 -0.005975 0.019559
v -0.005386 -0.005974 0.020823
v -0.009502 -0.005977 0.018449
v -0.011128 -0.005978 0.018736
v -0.012557 -0.005979 0.019562
v -0.014181 -0.005981 0.022378
v -0.013617 -0.005980 0.020826
v -0.005384 -0.005974 0.025576
v -0.007873 -0.005976 0.027666
v -0.009499 -0.005978 0.027953
v -0.006444 -0.005975 0.026840
v -0.004820 -0.005974 0.024024
v -0.013615 -0.005980 0.025579
v -0.012554 -0.005980 0.026843
v -0.011124 -0.005979 0.027667
v -0.014180 -0.005981 0.024028
vt 0.827644 0.578987
vt 0.800356 0.578987
vt 0.814000 0.581393
vt 0.800356 0.504013
vt 0.827643 0.504013
vt 0.814000 0.501607
vt 0.707767 0.125319
vt 0.724424 0.125319
vt 0.707771 0.114606
vt 0.724428 0.114606
vt 0.779451 0.521554
vt 0.774712 0.534573
vt 0.848548 0.521553
vt 0.853286 0.534573
vt 0.691110 0.125319
vt 0.691115 0.114606
vt 0.974236 0.114606
vt 0.974235 0.125319
vt 0.990890 0.114606
vt 0.990889 0.125319
vt 0.788357 0.572060
vt 0.839643 0.572060
vt 0.957582 0.114606
vt 0.957581 0.125319
vt 0.779451 0.561446
vt 0.848548 0.561446
vt 0.924275 0.114606
vt 0.924274 0.125319
vt 0.940928 0.114606
vt 0.940927 0.125319
vt 0.853287 0.548427
vt 0.774712 0.548427
vt 0.791052 0.114606
vt 0.774397 0.114606
vt 0.791048 0.125319
vt 0.774392 0.125319
vt 0.874317 0.114606
vt 0.874316 0.125319
vt 0.890969 0.114606
vt 0.890969 0.125319
vt 0.757741 0.114606
vt 0.741084 0.114606
vt 0.757737 0.125319
vt 0.741080 0.125319
vt 0.841010 0.125319
vt 0.857663 0.125319
vt 0.841012 0.114606
vt 0.857665 0.114606
vt 0.824359 0.114606
vt 0.824357 0.125319
vt 0.907621 0.114606
vt 0.907621 0.125319
vt 0.807706 0.114606
vt 0.807703 0.125319
vt 0.839643 0.510940
vt 0.788357 0.510940
vn -0.0007 1.0000 0.0001
vn -0.3424 -0.0002 -0.9396
vn -0.6431 -0.0004 -0.7658
vn -0.0004 0.0001 -1.0000
vn 0.3417 0.0003 -0.9398
vn 0.6425 0.0005 -0.7663
vn 0.9847 0.0007 -0.1740
vn 0.8658 0.0007 -0.5003
vn -0.8658 -0.0007 0.5003
vn -0.9847 -0.0007 0.1740
vn 0.6431 0.0004 0.7658
vn 0.8662 0.0006 0.4997
vn -0.9849 -0.0007 -0.1733
vn -0.8662 -0.0006 -0.4997
vn 0.0004 -0.0001 1.0000
vn 0.3424 0.0002 0.9396
vn -0.3417 -0.0003 0.9398
vn 0.9849 0.0007 0.1733
vn -0.6425 -0.0005 0.7663
usemtl oculus_quest_controller
s 1
f 29/1/1 35/2/1 30/3/1
f 24/4/1 20/5/1 23/6/1
f 9/7/2 10/8/3 24/9/2
f 24/9/2 10/8/3 25/10/3
f 27/11/1 26/12/1 22/13/1
f 22/13/1 26/12/1 19/14/1
f 9/7/2 24/9/2 1/15/4
f 1/15/4 24/9/2 23/16/4
f 20/17/5 12/18/5 23/19/4
f 23/19/4 12/18/5 1/20/4
f 35/2/1 29/1/1 34/21/1
f 34/21/1 29/1/1 31/22/1
f 21/23/6 13/24/6 20/17/5
f 20/17/5 13/24/6 12/18/5
f 34/21/1 31/22/1 33/25/1
f 33/25/1 31/22/1 28/26/1
f 19/27/7 11/28/7 22/29/8
f 22/29/8 11/28/7 14/30/8
f 32/31/1 19/14/1 36/32/1
f 36/32/1 19/14/1 26/12/1
f 22/29/8 14/30/8 21/23/6
f 21/23/6 14/30/8 13/24/6
f 28/26/1 32/31/1 33/25/1
f 33/25/1 32/31/1 36/32/1
f 33/33/9 36/34/10 3/35/9
f 3/35/9 36/34/10 2/36/10
f 31/37/11 18/38/11 28/39/12
f 28/39/12 18/38/11 6/40/12
f 26/41/13 27/42/14 15/43/13
f 15/43/13 27/42/14 8/44/14
f 17/45/15 7/46/16 30/47/15
f 30/47/15 7/46/16 29/48/16
f 36/34/10 26/41/13 2/36/10
f 2/36/10 26/41/13 15/43/13
f 18/38/11 31/37/11 7/46/16
f 7/46/16 31/37/11 29/48/16
f 27/42/14 25/10/3 8/44/14
f 8/44/14 25/10/3 10/8/3
f 30/47/15 35/49/17 17/45/15
f 17/45/15 35/49/17 5/50/17
f 32/51/18 16/52/18 19/27/7
f 19/27/7 16/52/18 11/28/7
f 34/53/19 33/33/9 4/54/19
f 4/54/19 33/33/9 3/35/9
f 21/55/1 25/56/1 22/13/1
f 22/13/1 25/56/1 27/11/1
f 28/39/12 6/40/12 32/51/18
f 32/51/18 6/40/12 16/52/18
f 35/49/17 34/53/19 5/50/17
f 5/50/17 34/53/19 4/54/19
f 20/5/1 24/4/1 21/55/1
f 21/55/1 24/4/1 25/56/1
