# Blender v2.80 (sub 60) OBJ File: ''
# www.blender.org
mtllib oculus_quest_controller.mtl
v 0.002550 0.001144 -0.008847
v 0.006555 -0.002076 -0.012638
v 0.005067 -0.003106 -0.004799
v 0.007408 -0.002779 -0.007505
v 0.006478 -0.002973 -0.005948
v 0.007745 -0.002545 -0.009282
v 0.007449 -0.002301 -0.011065
v 0.001643 -0.001756 -0.014465
v 0.005172 -0.001897 -0.013813
v 0.003466 -0.001786 -0.014448
v -0.000078 -0.001810 -0.013863
v -0.002418 -0.002137 -0.011157
v -0.002459 -0.002614 -0.007597
v -0.001566 -0.002839 -0.006024
v 0.001523 -0.003129 -0.004214
v -0.000183 -0.003018 -0.004849
v -0.001488 -0.001942 -0.012714
v -0.002755 -0.002370 -0.009380
v 0.003347 -0.003160 -0.004197
v 0.001351 0.000355 -0.005760
v -0.000404 0.000582 -0.007251
v -0.000779 0.000891 -0.009513
v 0.000401 0.001138 -0.011487
v 0.002583 0.001207 -0.012251
v 0.004748 0.001066 -0.011447
v 0.005881 0.000780 -0.009450
v 0.005453 0.000484 -0.007196
v 0.003664 0.000316 -0.005739
v 0.004746 -0.000368 -0.004782
v 0.005098 -0.001121 -0.004533
v 0.003377 -0.001175 -0.003931
v 0.003455 -0.000409 -0.004330
v 0.006948 -0.000081 -0.007175
v 0.007438 -0.000794 -0.007238
v 0.006508 -0.000989 -0.005682
v 0.006251 -0.000227 -0.006007
v 0.007775 -0.000561 -0.009015
v 0.007308 0.000168 -0.009071
v 0.007086 0.000351 -0.010409
v 0.007480 -0.000317 -0.010798
v 0.006586 -0.000092 -0.012372
v 0.006133 0.000591 -0.012088
v 0.005095 0.000725 -0.012969
v 0.005203 0.000087 -0.013547
v 0.003497 0.000198 -0.014181
v 0.003274 0.000844 -0.013646
v 0.001907 0.000867 -0.013659
v 0.001673 0.000229 -0.014198
v 0.000071 0.000809 -0.013016
v -0.000047 0.000175 -0.013596
v -0.000987 0.000710 -0.012155
v -0.001458 0.000042 -0.012448
v -0.001979 0.000502 -0.010494
v -0.002387 -0.000152 -0.010891
v -0.002232 0.000327 -0.009161
v -0.002725 -0.000386 -0.009114
v -0.002429 -0.000629 -0.007331
v -0.001916 0.000067 -0.007258
v -0.001246 -0.000102 -0.006078
v -0.001535 -0.000854 -0.005757
v 0.001509 -0.000377 -0.004348
v 0.001554 -0.001145 -0.003948
v -0.000152 -0.001033 -0.004582
v 0.000230 -0.000293 -0.004824
vt 0.380502 0.444579
vt 0.380501 0.481522
vt 0.404250 0.453221
vt 0.416886 0.475108
vt 0.356755 0.453220
vt 0.344117 0.475104
vt 0.348503 0.499993
vt 0.367863 0.516237
vt 0.393133 0.516237
vt 0.412494 0.499995
vt 0.035574 0.628402
vt 0.035574 0.610000
vt 0.029433 0.628402
vt 0.029433 0.610000
vt 0.029433 0.591598
vt 0.035574 0.591598
vt 0.029433 0.573196
vt 0.035574 0.573196
vt 0.035574 0.665207
vt 0.035574 0.646804
vt 0.029434 0.665207
vt 0.029434 0.646804
vt 0.035574 0.683610
vt 0.029434 0.683610
vt 0.035574 0.702012
vt 0.029433 0.702012
vt 0.035574 0.720414
vt 0.029433 0.720414
vt 0.035574 0.738816
vt 0.029433 0.738816
vt 0.035574 0.757218
vt 0.029433 0.757218
vt 0.035574 0.775619
vt 0.029433 0.775619
vt 0.035574 0.462782
vt 0.035574 0.444381
vt 0.029433 0.462782
vt 0.029432 0.444381
vt 0.035574 0.481184
vt 0.029433 0.481184
vt 0.035574 0.499587
vt 0.029433 0.499587
vt 0.035574 0.517989
vt 0.029434 0.517989
vt 0.035574 0.536391
vt 0.029434 0.536391
vt 0.035574 0.554794
vt 0.029434 0.554794
vt 0.340631 0.445989
vt 0.352437 0.436085
vt 0.329793 0.464751
vt 0.327111 0.479930
vt 0.330870 0.501273
vt 0.338582 0.514623
vt 0.355183 0.528549
vt 0.369666 0.533818
vt 0.405814 0.528547
vt 0.391331 0.533817
vt 0.430122 0.501278
vt 0.422412 0.514623
vt 0.433889 0.479940
vt 0.431217 0.464756
vt 0.408569 0.436084
vt 0.420378 0.445989
vt 0.372797 0.428676
vt 0.388208 0.428675
vt 0.009226 0.757218
vt 0.009227 0.738816
vt 0.009227 0.720414
vt 0.009227 0.702012
vt 0.009227 0.683610
vt 0.009227 0.573196
vt 0.009227 0.591598
vt 0.009227 0.646804
vt 0.009227 0.665207
vt 0.009227 0.536391
vt 0.009227 0.554794
vt 0.009227 0.628402
vt 0.009227 0.517989
vt 0.009227 0.610000
vt 0.009227 0.499587
vt 0.009226 0.481184
vt 0.009226 0.462782
vt 0.009226 0.775619
vt 0.009226 0.444381
vn -0.0713 0.9320 0.3555
vn 0.0153 0.9910 0.1330
vn -0.1978 0.9484 0.2479
vn -0.2249 0.9707 0.0847
vn 0.0956 0.9292 0.3570
vn 0.2247 0.9413 0.2519
vn 0.2556 0.9627 0.0892
vn 0.1739 0.9832 -0.0549
vn 0.0176 0.9935 -0.1128
vn -0.1398 0.9885 -0.0578
vn 0.4180 0.7727 0.4778
vn 0.2969 0.7559 0.5835
vn 0.7459 0.0604 0.6633
vn 0.4906 0.0483 0.8700
vn 0.1546 0.0260 0.9876
vn 0.0849 0.7546 0.6506
vn -0.1736 0.0432 0.9839
vn -0.0766 0.7521 0.6546
vn 0.5614 0.8167 0.1333
vn 0.5375 0.7914 0.2911
vn 0.9893 0.1405 0.0385
vn 0.9265 0.1100 0.3597
vn 0.5431 0.8351 -0.0880
vn 0.9301 0.1996 -0.3082
vn 0.4417 0.8717 -0.2125
vn 0.7710 0.2288 -0.5944
vn 0.2916 0.8781 -0.3795
vn 0.4997 0.2751 -0.8213
vn 0.1315 0.9029 -0.4093
vn 0.1930 0.2840 -0.9392
vn -0.0905 0.8924 -0.4421
vn -0.1633 0.3012 -0.9395
vn -0.2342 0.9022 -0.3622
vn -0.4741 0.2803 -0.8346
vn -0.4177 0.8771 -0.2372
vn -0.7487 0.2657 -0.6074
vn -0.4947 0.8638 -0.0957
vn -0.9183 0.2194 -0.3296
vn -0.5431 0.8312 0.1189
vn -0.9825 0.1852 0.0195
vn -0.5108 0.8141 0.2763
vn -0.9316 0.1298 0.3396
vn -0.4181 0.7743 0.4750
vn -0.7554 0.0973 0.6480
vn -0.2784 0.7788 0.5621
vn -0.5079 0.0534 0.8598
vn -0.1623 0.1337 -0.9776
vn 0.1850 0.1279 -0.9744
vn 0.5099 0.1067 -0.8536
vn 0.7733 0.0726 -0.6299
vn 0.9435 0.0297 -0.3301
vn -0.1850 -0.1279 0.9744
vn 0.1623 -0.1337 0.9776
vn 0.9356 -0.0611 0.3478
vn 0.9998 -0.0167 0.0094
vn -0.7733 -0.0726 0.6299
vn -0.5099 -0.1067 0.8536
vn 0.7585 -0.0982 0.6442
vn -0.9435 -0.0297 0.3301
vn 0.4899 -0.1234 0.8630
vn -0.9998 0.0167 -0.0094
vn -0.9356 0.0611 -0.3478
vn -0.7585 0.0982 -0.6442
vn -0.4899 0.1234 -0.8630
usemtl oculus_quest_controller
s 1
f 20/1/1 1/2/2 21/3/3
f 21/3/3 1/2/2 22/4/4
f 20/1/1 28/5/5 1/2/2
f 1/2/2 28/5/5 27/6/6
f 27/6/6 26/7/7 1/2/2
f 1/2/2 26/7/7 25/8/8
f 25/8/8 24/9/9 1/2/2
f 1/2/2 24/9/9 23/10/10
f 22/4/4 1/2/2 23/10/10
f 36/11/11 29/12/12 35/13/13
f 35/13/13 29/12/12 30/14/14
f 31/15/15 30/14/14 32/16/16
f 32/16/16 30/14/14 29/12/12
f 62/17/17 31/15/15 61/18/18
f 61/18/18 31/15/15 32/16/16
f 38/19/19 33/20/20 37/21/21
f 37/21/21 33/20/20 34/22/22
f 35/13/13 34/22/22 36/11/11
f 36/11/11 34/22/22 33/20/20
f 39/23/23 38/19/19 40/24/24
f 40/24/24 38/19/19 37/21/21
f 42/25/25 39/23/23 41/26/26
f 41/26/26 39/23/23 40/24/24
f 43/27/27 42/25/25 44/28/28
f 44/28/28 42/25/25 41/26/26
f 46/29/29 43/27/27 45/30/30
f 45/30/30 43/27/27 44/28/28
f 47/31/31 46/29/29 48/32/32
f 48/32/32 46/29/29 45/30/30
f 49/33/33 47/31/31 50/34/34
f 50/34/34 47/31/31 48/32/32
f 51/35/35 49/36/33 52/37/36
f 52/37/36 49/36/33 50/38/34
f 53/39/37 51/35/35 54/40/38
f 54/40/38 51/35/35 52/37/36
f 55/41/39 53/39/37 56/42/40
f 56/42/40 53/39/37 54/40/38
f 58/43/41 55/41/39 57/44/42
f 57/44/42 55/41/39 56/42/40
f 59/45/43 58/43/41 60/46/44
f 60/46/44 58/43/41 57/44/42
f 64/47/45 59/45/43 63/48/46
f 63/48/46 59/45/43 60/46/44
f 63/48/46 62/17/17 64/47/45
f 64/47/45 62/17/17 61/18/18
f 29/49/12 28/5/5 32/50/16
f 36/51/11 33/52/20 27/6/6
f 38/53/19 39/54/23 26/7/7
f 42/55/25 43/56/27 25/8/8
f 47/57/31 24/9/9 46/58/29
f 51/59/35 23/10/10 49/60/33
f 53/61/37 55/62/39 22/4/4
f 59/63/43 21/3/3 58/64/41
f 61/65/18 20/1/1 64/66/45
f 51/59/35 53/61/37 23/10/10
f 23/10/10 53/61/37 22/4/4
f 8/67/47 48/32/32 10/68/48
f 10/68/48 48/32/32 45/30/30
f 44/28/28 9/69/49 45/30/30
f 45/30/30 9/69/49 10/68/48
f 49/60/33 23/10/10 47/57/31
f 47/57/31 23/10/10 24/9/9
f 9/69/49 44/28/28 2/70/50
f 2/70/50 44/28/28 41/26/26
f 40/24/24 7/71/51 41/26/26
f 41/26/26 7/71/51 2/70/50
f 62/17/17 15/72/52 31/15/15
f 31/15/15 15/72/52 19/73/53
f 34/22/22 4/74/54 37/21/21
f 37/21/21 4/74/54 6/75/55
f 60/46/44 14/76/56 63/48/46
f 63/48/46 14/76/56 16/77/57
f 46/58/29 24/9/9 43/56/27
f 43/56/27 24/9/9 25/8/8
f 6/75/55 7/71/51 37/21/21
f 37/21/21 7/71/51 40/24/24
f 16/77/57 15/72/52 63/48/46
f 63/48/46 15/72/52 62/17/17
f 42/55/25 25/8/8 39/54/23
f 39/54/23 25/8/8 26/7/7
f 61/65/18 32/50/16 20/1/1
f 20/1/1 32/50/16 28/5/5
f 4/74/54 34/22/22 5/78/58
f 5/78/58 34/22/22 35/13/13
f 14/76/56 60/46/44 13/79/59
f 13/79/59 60/46/44 57/44/42
f 30/14/14 3/80/60 35/13/13
f 35/13/13 3/80/60 5/78/58
f 57/44/42 56/42/40 13/79/59
f 13/79/59 56/42/40 18/81/61
f 33/52/20 38/53/19 27/6/6
f 27/6/6 38/53/19 26/7/7
f 64/66/45 20/1/1 59/63/43
f 59/63/43 20/1/1 21/3/3
f 19/73/53 3/80/60 31/15/15
f 31/15/15 3/80/60 30/14/14
f 18/81/61 56/42/40 12/82/62
f 12/82/62 56/42/40 54/40/38
f 52/37/36 17/83/63 54/40/38
f 54/40/38 17/83/63 12/82/62
f 48/32/32 8/67/47 50/34/34
f 50/34/34 8/67/47 11/84/64
f 29/49/12 36/51/11 28/5/5
f 28/5/5 36/51/11 27/6/6
f 55/62/39 58/64/41 22/4/4
f 22/4/4 58/64/41 21/3/3
f 11/85/64 17/83/63 50/38/34
f 50/38/34 17/83/63 52/37/36
