# Blender v2.80 (sub 60) OBJ File: ''
# www.blender.org
mtllib oculus_quest_controller.mtl
v -0.021663 0.002976 -0.009724
v -0.020257 0.003383 -0.011818
v -0.017808 0.003522 -0.012536
v -0.015463 0.003329 -0.011540
v -0.014318 0.002893 -0.009298
v -0.014910 0.002419 -0.006858
v -0.016961 0.002128 -0.005362
v -0.019511 0.002157 -0.005510
v -0.021368 0.002492 -0.007233
v -0.026360 -0.001472 -0.011727
v -0.023136 -0.000539 -0.016528
v -0.017523 -0.000220 -0.018173
v -0.012147 -0.000663 -0.015891
v -0.009522 -0.001662 -0.010750
v -0.010878 -0.002750 -0.005156
v -0.015580 -0.003416 -0.001727
v -0.021427 -0.003350 -0.002066
v -0.025685 -0.002583 -0.006016
v -0.023991 0.001544 -0.010567
v -0.021684 0.002212 -0.014003
v -0.017667 0.002440 -0.015180
v -0.013819 0.002123 -0.013547
v -0.011941 0.001408 -0.009868
v -0.012911 0.000629 -0.005864
v -0.016276 0.000152 -0.003409
v -0.020461 0.000200 -0.003652
v -0.023508 0.000749 -0.006479
v -0.021368 0.004151 -0.006910
v -0.019511 0.003816 -0.005187
v -0.016961 0.003787 -0.005039
v -0.014910 0.004078 -0.006535
v -0.014318 0.004552 -0.008975
v -0.015463 0.004988 -0.011218
v -0.017808 0.005181 -0.012213
v -0.020257 0.005042 -0.011496
v -0.021663 0.004635 -0.009402
v -0.024182 0.007791 -0.007180
v -0.024706 0.006408 -0.007387
v -0.024568 0.006852 -0.009675
v -0.024058 0.008199 -0.009289
v -0.023570 0.007395 -0.005156
v -0.024039 0.005981 -0.005191
v -0.022283 0.007069 -0.003462
v -0.022646 0.005623 -0.003352
v -0.020488 0.006840 -0.002297
v -0.020697 0.005378 -0.002091
v -0.018394 0.006748 -0.001811
v -0.018425 0.005275 -0.001560
v -0.016257 0.006792 -0.002052
v -0.016106 0.005326 -0.001824
v -0.014334 0.006979 -0.003000
v -0.014019 0.005526 -0.002851
v -0.012854 0.007275 -0.004534
v -0.012416 0.005850 -0.004517
v -0.012003 0.007654 -0.006473
v -0.011489 0.006258 -0.006620
v -0.011873 0.008062 -0.008582
v -0.011351 0.006703 -0.008908
v -0.012491 0.008457 -0.010605
v -0.012019 0.007130 -0.011104
v -0.013772 0.008785 -0.012303
v -0.013411 0.007487 -0.012943
v -0.015570 0.009012 -0.013462
v -0.015361 0.007733 -0.014204
v -0.017663 0.009106 -0.013954
v -0.017632 0.007836 -0.014735
v -0.019800 0.009060 -0.013707
v -0.019951 0.007784 -0.014471
v -0.021725 0.008874 -0.012764
v -0.022038 0.007585 -0.013444
v -0.023201 0.008578 -0.011226
v -0.023642 0.007261 -0.011778
v -0.024031 0.004952 -0.007750
v -0.023907 0.005352 -0.009806
v -0.023074 0.005719 -0.011697
v -0.021633 0.006010 -0.013194
v -0.019757 0.006190 -0.014117
v -0.017672 0.006236 -0.014354
v -0.015631 0.006143 -0.013878
v -0.013878 0.005923 -0.012744
v -0.012627 0.005601 -0.011091
v -0.012027 0.005218 -0.009117
v -0.012150 0.004818 -0.007060
v -0.012983 0.004451 -0.005170
v -0.014425 0.004160 -0.003673
v -0.016301 0.003980 -0.002750
v -0.018385 0.003934 -0.002512
v -0.020427 0.004027 -0.002989
v -0.022179 0.004247 -0.004123
v -0.023431 0.004568 -0.005776
v -0.018302 0.007702 -0.003208
v -0.016701 0.007735 -0.003388
v -0.019870 0.007771 -0.003572
v -0.021901 0.009073 -0.010259
v -0.022543 0.008789 -0.008808
v -0.020796 0.009295 -0.011410
v -0.019355 0.009434 -0.012116
v -0.017755 0.009468 -0.012301
v -0.016188 0.009398 -0.011932
v -0.014841 0.009227 -0.011064
v -0.013882 0.008982 -0.009793
v -0.013418 0.008686 -0.008278
v -0.013516 0.008381 -0.006699
v -0.014153 0.008097 -0.005247
v -0.015262 0.007875 -0.004099
v -0.021214 0.007942 -0.004444
v -0.022177 0.008187 -0.005713
v -0.022636 0.008484 -0.007229
v -0.018274 0.007038 -0.003775
v -0.016836 0.007068 -0.003937
v -0.019683 0.007100 -0.004102
v -0.021508 0.008269 -0.010109
v -0.022084 0.008014 -0.008806
v -0.020515 0.008468 -0.011143
v -0.019220 0.008593 -0.011778
v -0.017782 0.008624 -0.011944
v -0.016375 0.008561 -0.011612
v -0.015165 0.008408 -0.010833
v -0.014303 0.008188 -0.009691
v -0.013887 0.007921 -0.008330
v -0.013975 0.007647 -0.006911
v -0.014547 0.007392 -0.005607
v -0.015543 0.007193 -0.004575
v -0.020890 0.007253 -0.004885
v -0.021756 0.007473 -0.006025
v -0.022167 0.007740 -0.007387
v -0.017607 0.007138 -0.004296
v -0.015373 0.007352 -0.005395
v -0.014381 0.007789 -0.007647
v -0.015096 0.008246 -0.009997
v -0.017183 0.008509 -0.011347
v -0.019665 0.008454 -0.011064
v -0.021381 0.008107 -0.009281
v -0.021529 0.007631 -0.006833
v -0.020038 0.007249 -0.004864
vt 0.135507 0.064386
vt 0.149297 0.064386
vt 0.149297 0.044571
vt 0.163376 0.064386
vt 0.177643 0.064386
vt 0.177897 0.044571
vt 0.192061 0.064386
vt 0.206538 0.064386
vt 0.206680 0.044571
vt 0.220992 0.064386
vt 0.235322 0.064386
vt 0.249459 0.064386
vt 0.234039 0.044571
vt 0.021439 0.064386
vt 0.035476 0.064386
vt 0.035476 0.044571
vt 0.049774 0.064386
vt 0.064211 0.064386
vt 0.064211 0.044571
vt 0.078675 0.064386
vt 0.093119 0.064386
vt 0.107441 0.064386
vt 0.093119 0.044571
vt 0.121598 0.044571
vt 0.007637 0.064386
vt 0.007637 0.044571
vt 0.263363 0.064386
vt 0.263363 0.044571
vt 0.121598 0.064386
vt 0.395609 0.123483
vt 0.405739 0.096014
vt 0.367296 0.123457
vt 0.357374 0.095862
vt 0.007637 0.028788
vt 0.035476 0.028788
vt 0.093119 0.085631
vt 0.093119 0.075079
vt 0.078675 0.085631
vt 0.078675 0.075079
vt 0.049774 0.075079
vt 0.035476 0.075079
vt 0.417335 0.141680
vt 0.442645 0.127300
vt 0.064211 0.028788
vt 0.107441 0.085631
vt 0.107441 0.075079
vt 0.021439 0.075079
vt 0.421738 0.169502
vt 0.450355 0.174832
vt 0.093119 0.028788
vt 0.121598 0.085631
vt 0.121598 0.075079
vt 0.007637 0.075079
vt 0.192061 0.075079
vt 0.177643 0.075079
vt 0.402901 0.165924
vt 0.395192 0.178789
vt 0.407392 0.193582
vt 0.121598 0.028788
vt 0.135507 0.085631
vt 0.135507 0.075079
vt 0.206538 0.085631
vt 0.220992 0.085631
vt 0.206538 0.075079
vt 0.220992 0.075079
vt 0.263363 0.075079
vt 0.249459 0.075079
vt 0.163376 0.075079
vt 0.366885 0.178873
vt 0.354640 0.193627
vt 0.381021 0.183884
vt 0.381034 0.203058
vt 0.149297 0.028788
vt 0.177897 0.028788
vt 0.163376 0.085631
vt 0.149297 0.085631
vt 0.149297 0.075079
vt 0.235322 0.085631
vt 0.249459 0.085631
vt 0.235322 0.075079
vt 0.359340 0.166021
vt 0.340318 0.169370
vt 0.425933 0.215984
vt 0.177643 0.085631
vt 0.263363 0.085631
vt 0.362133 0.151283
vt 0.345482 0.141505
vt 0.381004 0.232138
vt 0.192061 0.085631
vt 0.007637 0.085631
vt 0.021439 0.085631
vt 0.373840 0.141656
vt 0.335969 0.215959
vt 0.035476 0.085631
vt 0.388996 0.141625
vt 0.311645 0.174399
vt 0.206680 0.028788
vt 0.049774 0.085631
vt 0.400535 0.151210
vt 0.320179 0.126776
vt 0.234039 0.028788
vt 0.064211 0.085631
vt 0.064211 0.075079
vt 0.263363 0.028788
vt 0.121598 0.098019
vt 0.135507 0.098019
vt 0.149297 0.098019
vt 0.206538 0.098019
vt 0.220992 0.098019
vt 0.235322 0.098019
vt 0.249459 0.098019
vt 0.263363 0.098019
vt 0.007637 0.098019
vt 0.021439 0.098019
vt 0.035476 0.098019
vt 0.049774 0.098019
vt 0.064211 0.098019
vt 0.078675 0.098019
vt 0.093119 0.098019
vt 0.107441 0.098019
vt 0.163376 0.098019
vt 0.177643 0.098019
vt 0.192061 0.098019
vt 0.322347 0.106856
vt 0.321042 0.102836
vt 0.308216 0.108473
vt 0.308487 0.104272
vt 0.294372 0.105202
vt 0.296185 0.101366
vt 0.276446 0.045062
vt 0.270780 0.058109
vt 0.280224 0.047909
vt 0.275193 0.059515
vt 0.286199 0.034711
vt 0.288897 0.038698
vt 0.298925 0.028359
vt 0.300217 0.033043
vt 0.313050 0.026699
vt 0.312784 0.031565
vt 0.326881 0.030012
vt 0.325090 0.034514
vt 0.338769 0.037818
vt 0.335664 0.041464
vt 0.347235 0.049247
vt 0.343189 0.051633
vt 0.351325 0.062871
vt 0.346818 0.063750
vt 0.350464 0.077069
vt 0.346044 0.076374
vt 0.344840 0.090137
vt 0.341036 0.087986
vt 0.335055 0.100461
vt 0.332336 0.097157
vt 0.282508 0.097354
vt 0.285640 0.094398
vt 0.274007 0.085948
vt 0.278079 0.084264
vt 0.269961 0.072310
vt 0.274474 0.072142
vt 0.293083 0.094587
vt 0.314311 0.099636
vt 0.342493 0.069825
vt 0.333822 0.089859
vt 0.318024 0.036880
vt 0.336258 0.048900
vt 0.281334 0.055275
vt 0.296328 0.039399
vt 0.280057 0.077071
vn -0.0423 -0.8206 0.5699
vn -0.2920 -0.7938 0.5336
vn -0.3234 -0.7119 0.6234
vn -0.4926 -0.7835 0.3787
vn -0.6577 -0.7278 0.1943
vn -0.7284 -0.6388 0.2477
vn -0.7125 -0.6998 -0.0518
vn -0.7157 -0.6324 -0.2964
vn -0.7926 -0.5332 -0.2958
vn -0.5989 -0.6087 -0.5204
vn -0.4388 -0.5522 -0.7089
vn -0.2051 -0.5529 -0.8076
vn -0.4860 -0.4444 -0.7526
vn 0.2847 -0.5584 -0.7792
vn 0.5053 -0.5629 -0.6541
vn 0.5596 -0.4562 -0.6919
vn 0.6412 -0.6227 -0.4484
vn 0.7308 -0.6487 -0.2124
vn 0.8093 -0.5513 -0.2028
vn 0.6978 -0.7157 0.0300
vn 0.6143 -0.7422 0.2681
vn 0.4278 -0.7939 0.4321
vn 0.6803 -0.6547 0.3294
vn 0.2330 -0.7181 0.6557
vn 0.0434 -0.5248 -0.8501
vn 0.0481 -0.4140 -0.9090
vn 0.2104 -0.7994 0.5627
vn 0.2113 0.5262 0.8237
vn 0.2271 0.4512 0.8630
vn 0.6171 0.5837 0.5277
vn 0.6632 0.5131 0.5449
vn 0.0590 0.1905 -0.9799
vn 0.6869 0.1387 -0.7134
vn 0.6889 0.4684 0.5532
vn 0.8340 -0.1530 0.5301
vn 0.7594 0.5791 0.2966
vn 0.9717 -0.0919 0.2177
vn 0.8930 0.0376 -0.4484
vn 0.6860 0.0903 -0.7219
vn -0.2933 0.5319 0.7944
vn -0.3152 0.4574 0.8315
vn 0.9933 0.0220 -0.1131
vn 0.4654 0.4940 0.7344
vn 0.5957 -0.2007 0.7777
vn 0.3964 0.1272 -0.9092
vn -0.6607 0.5981 0.4536
vn -0.7101 0.5286 0.4652
vn 0.8350 -0.1050 0.5401
vn 0.2361 0.4042 0.8837
vn 0.2856 -0.2309 0.9301
vn 0.0589 0.1421 -0.9881
vn -0.9921 -0.0698 0.1038
vn -0.8929 -0.1336 0.4299
vn -0.4896 0.7745 0.4005
vn -0.5328 0.8455 0.0352
vn -0.7189 0.6940 -0.0394
vn 0.2860 -0.1828 0.9406
vn -0.0463 0.4648 0.8842
vn -0.0589 -0.2380 0.9695
vn -0.8025 0.5914 -0.0795
vn -0.6518 0.6955 -0.3024
vn -0.9717 -0.0041 -0.2363
vn -0.8340 0.0571 -0.5488
vn -0.2856 0.1349 -0.9488
vn -0.6861 -0.1863 0.7033
vn 0.0323 0.9256 -0.3770
vn 0.0436 0.8021 -0.5956
vn -0.3267 0.9052 -0.2719
vn -0.4408 0.7745 -0.4537
vn -0.3969 -0.1751 0.9010
vn -0.8940 -0.0855 0.4398
vn -0.5362 0.5053 0.6762
vn -0.3274 0.4105 0.8511
vn -0.3964 -0.2231 0.8906
vn -0.4920 0.6813 -0.5420
vn -0.2232 0.7563 -0.6150
vn -0.5957 0.1048 -0.7963
vn 0.3762 0.8973 -0.2311
vn 0.5076 0.7638 -0.3987
vn -0.7727 0.6315 -0.0645
vn -0.7375 0.4845 0.4704
vn 0.0489 0.7121 -0.7004
vn 0.5440 0.8334 0.0977
vn 0.7341 0.6776 0.0450
vn -0.4737 0.7181 -0.5098
vn -0.7754 0.5964 0.2076
vn 0.3098 0.7503 -0.5841
vn 0.4573 0.7638 0.4555
vn 0.0469 0.7477 -0.6623
vn 0.5665 0.6694 -0.4806
vn 0.1566 0.7212 0.6748
vn 0.5455 0.7066 -0.4507
vn -0.9728 0.0442 -0.2272
vn 0.6980 0.6802 -0.2239
vn -0.2174 0.7254 0.6531
vn 0.7889 0.6139 0.0261
vn -0.5965 0.1532 -0.7879
vn 0.8193 0.5732 0.0144
vn 0.9921 -0.0262 -0.1223
vn 0.0233 0.9647 0.2624
vn -0.0018 0.9751 0.2218
vn -0.0295 0.9651 0.2602
vn -0.0751 0.9821 0.1725
vn -0.0195 0.9833 0.1808
vn -0.0473 0.9903 0.1305
vn -0.0070 0.9854 0.1704
vn 0.0041 0.9922 0.1244
vn 0.0096 0.9852 0.1714
vn 0.0543 0.9892 0.1365
vn 0.0205 0.9828 0.1833
vn 0.0771 0.9798 0.1843
vn 0.0201 0.9799 0.1983
vn 0.0631 0.9702 0.2341
vn 0.0109 0.9780 0.2081
vn -0.0128 0.9783 0.2069
vn -0.0679 0.9716 0.2266
vn -0.0209 0.9804 0.1959
vn -0.1738 0.8812 -0.4395
vn 0.0305 0.9378 -0.3457
vn 0.2423 0.8770 -0.4149
vn 0.4295 0.7910 0.4357
vn 0.5913 0.7553 0.2827
vn 0.3610 0.6964 0.6203
vn 0.1484 0.7543 0.6396
vn -0.0355 0.6698 0.7417
vn -0.2050 0.7579 0.6194
vn -0.4154 0.7040 0.5761
vn -0.4604 0.8002 0.3843
vn -0.6048 0.7672 0.2136
vn -0.5046 0.8625 0.0392
vn -0.5126 0.8375 -0.1892
vn -0.3101 0.9157 -0.2557
vn 0.3574 0.9086 -0.2162
vn 0.5480 0.8268 -0.1271
vn 0.5145 0.8517 0.0989
vn -0.0002 0.9816 0.1907
vn -0.0003 0.9816 0.1909
vn 0.0000 0.9816 0.1910
vn -0.0003 0.9815 0.1912
vn -0.0000 0.9816 0.1908
vn 0.0001 0.9816 0.1909
vn 0.0000 0.9817 0.1906
vn 0.0002 0.9817 0.1907
vn -0.0003 0.9817 0.1904
usemtl oculus_quest_controller
s 1
f 87/1/1 88/2/2 29/3/3
f 89/4/4 90/5/5 28/6/6
f 73/7/7 74/8/8 36/9/9
f 36/9/9 74/8/8 75/10/10
f 76/11/11 77/12/12 35/13/13
f 79/14/14 80/15/15 33/16/16
f 33/16/16 80/15/15 81/17/17
f 82/18/18 32/19/19 81/17/17
f 81/17/17 32/19/19 33/16/16
f 82/18/18 83/20/20 32/19/19
f 84/21/21 85/22/22 31/23/23
f 31/23/23 85/22/22 30/24/24
f 78/25/25 79/14/14 34/26/26
f 34/26/26 79/14/14 33/16/16
f 76/11/11 35/13/13 75/10/10
f 75/10/10 35/13/13 36/9/9
f 78/27/25 34/28/26 77/12/12
f 77/12/12 34/28/26 35/13/13
f 90/5/5 73/7/7 28/6/6
f 28/6/6 73/7/7 36/9/9
f 88/2/2 89/4/4 29/3/3
f 29/3/3 89/4/4 28/6/6
f 86/29/27 87/1/1 30/24/24
f 30/24/24 87/1/1 29/3/3
f 86/29/27 30/24/24 85/22/22
f 84/21/21 31/23/23 83/20/20
f 83/20/20 31/23/23 32/19/19
f 25/30/28 16/31/29 24/32/30
f 24/32/30 16/31/29 15/33/31
f 3/34/32 34/26/26 4/35/33
f 4/35/33 34/26/26 33/16/16
f 53/36/34 54/37/35 55/38/36
f 55/38/36 54/37/35 56/39/37
f 81/17/17 80/15/15 60/40/38
f 60/40/38 80/15/15 62/41/39
f 26/42/40 17/43/41 25/30/28
f 25/30/28 17/43/41 16/31/29
f 33/16/16 32/19/19 4/35/33
f 4/35/33 32/19/19 5/44/42
f 51/45/43 52/46/44 53/36/34
f 53/36/34 52/46/44 54/37/35
f 80/15/15 79/14/14 62/41/39
f 62/41/39 79/14/14 64/47/45
f 27/48/46 18/49/47 26/42/40
f 26/42/40 18/49/47 17/43/41
f 32/19/19 31/23/23 5/44/42
f 5/44/42 31/23/23 6/50/48
f 49/51/49 50/52/50 51/45/43
f 51/45/43 50/52/50 52/46/44
f 79/14/14 78/25/25 64/47/45
f 64/47/45 78/25/25 66/53/51
f 73/7/7 90/5/5 38/54/52
f 38/54/52 90/5/5 42/55/53
f 9/56/54 1/57/55 27/48/46
f 27/48/46 1/57/55 19/58/56
f 31/23/23 30/24/24 6/50/48
f 6/50/48 30/24/24 7/59/57
f 47/60/58 48/61/59 49/51/49
f 49/51/49 48/61/59 50/52/50
f 40/62/60 71/63/61 39/64/62
f 39/64/62 71/63/61 72/65/63
f 78/27/25 77/12/12 66/66/51
f 66/66/51 77/12/12 68/67/64
f 90/5/5 89/4/4 42/55/53
f 42/55/53 89/4/4 44/68/65
f 3/69/66 21/70/67 2/71/68
f 2/71/68 21/70/67 20/72/69
f 8/73/70 29/3/3 9/74/71
f 9/74/71 29/3/3 28/6/6
f 43/75/72 44/68/65 45/76/73
f 45/76/73 44/68/65 46/77/74
f 69/78/75 67/79/76 70/80/77
f 70/80/77 67/79/76 68/67/64
f 76/11/11 75/10/10 70/80/77
f 70/80/77 75/10/10 72/65/63
f 88/2/2 87/1/1 46/77/74
f 46/77/74 87/1/1 48/61/59
f 2/71/68 20/72/69 1/57/55
f 1/57/55 20/72/69 19/58/56
f 30/24/24 29/3/3 7/59/57
f 7/59/57 29/3/3 8/73/70
f 45/76/73 46/77/74 47/60/58
f 47/60/58 46/77/74 48/61/59
f 70/80/77 72/65/63 69/78/75
f 69/78/75 72/65/63 71/63/61
f 77/12/12 76/11/11 68/67/64
f 68/67/64 76/11/11 70/80/77
f 89/4/4 88/2/2 44/68/65
f 44/68/65 88/2/2 46/77/74
f 4/81/78 22/82/79 3/69/66
f 3/69/66 22/82/79 21/70/67
f 27/48/46 19/58/56 18/49/47
f 18/49/47 19/58/56 10/83/80
f 42/55/53 44/68/65 41/84/81
f 41/84/81 44/68/65 43/75/72
f 66/66/51 68/67/64 65/85/82
f 65/85/82 68/67/64 67/79/76
f 75/10/10 74/8/8 72/65/63
f 72/65/63 74/8/8 39/64/62
f 87/1/1 86/29/27 48/61/59
f 48/61/59 86/29/27 50/52/50
f 5/86/83 23/87/84 4/81/78
f 4/81/78 23/87/84 22/82/79
f 20/72/69 11/88/85 19/58/56
f 19/58/56 11/88/85 10/83/80
f 41/84/81 37/89/86 42/55/53
f 42/55/53 37/89/86 38/54/52
f 65/90/82 63/91/87 66/53/51
f 66/53/51 63/91/87 64/47/45
f 74/8/8 73/7/7 39/64/62
f 39/64/62 73/7/7 38/54/52
f 86/29/27 85/22/22 50/52/50
f 50/52/50 85/22/22 52/46/44
f 6/92/88 24/32/30 5/86/83
f 5/86/83 24/32/30 23/87/84
f 21/70/67 12/93/89 20/72/69
f 20/72/69 12/93/89 11/88/85
f 39/64/62 38/54/52 40/62/60
f 40/62/60 38/54/52 37/89/86
f 62/41/39 64/47/45 61/94/90
f 61/94/90 64/47/45 63/91/87
f 85/22/22 84/21/21 52/46/44
f 52/46/44 84/21/21 54/37/35
f 7/95/91 25/30/28 6/92/88
f 6/92/88 25/30/28 24/32/30
f 22/82/79 13/96/92 21/70/67
f 21/70/67 13/96/92 12/93/89
f 28/6/6 36/9/9 9/74/71
f 9/74/71 36/9/9 1/97/93
f 59/98/94 60/40/38 61/94/90
f 61/94/90 60/40/38 62/41/39
f 84/21/21 83/20/20 54/37/35
f 54/37/35 83/20/20 56/39/37
f 8/99/95 26/42/40 7/95/91
f 7/95/91 26/42/40 25/30/28
f 23/87/84 14/100/96 22/82/79
f 22/82/79 14/100/96 13/96/92
f 36/9/9 35/13/13 1/97/93
f 1/97/93 35/13/13 2/101/97
f 57/102/98 58/103/99 59/98/94
f 59/98/94 58/103/99 60/40/38
f 83/20/20 82/18/18 56/39/37
f 56/39/37 82/18/18 58/103/99
f 9/56/54 27/48/46 8/99/95
f 8/99/95 27/48/46 26/42/40
f 24/32/30 15/33/31 23/87/84
f 23/87/84 15/33/31 14/100/96
f 35/13/13 34/28/26 2/101/97
f 2/101/97 34/28/26 3/104/32
f 55/38/36 56/39/37 57/102/98
f 57/102/98 56/39/37 58/103/99
f 82/18/18 81/17/17 58/103/99
f 58/103/99 81/17/17 60/40/38
f 49/51/49 92/105/100 47/60/58
f 47/60/58 92/105/100 91/106/101
f 45/76/73 47/60/58 93/107/102
f 93/107/102 47/60/58 91/106/101
f 40/62/60 95/108/103 71/63/61
f 71/63/61 95/108/103 94/109/104
f 69/78/75 71/63/61 96/110/105
f 96/110/105 71/63/61 94/109/104
f 69/78/75 96/110/105 67/79/76
f 67/79/76 96/110/105 97/111/106
f 65/85/82 67/79/76 98/112/107
f 98/112/107 67/79/76 97/111/106
f 65/90/82 98/113/107 63/91/87
f 63/91/87 98/113/107 99/114/108
f 61/94/90 63/91/87 100/115/109
f 100/115/109 63/91/87 99/114/108
f 61/94/90 100/115/109 59/98/94
f 59/98/94 100/115/109 101/116/110
f 57/102/98 59/98/94 102/117/111
f 102/117/111 59/98/94 101/116/110
f 57/102/98 102/117/111 55/38/36
f 55/38/36 102/117/111 103/118/112
f 53/36/34 55/38/36 104/119/113
f 104/119/113 55/38/36 103/118/112
f 53/36/34 104/119/113 51/45/43
f 51/45/43 104/119/113 105/120/114
f 49/51/49 51/45/43 92/105/100
f 92/105/100 51/45/43 105/120/114
f 45/76/73 93/107/102 43/75/72
f 43/75/72 93/107/102 106/121/115
f 41/84/81 43/75/72 107/122/116
f 107/122/116 43/75/72 106/121/115
f 41/84/81 107/122/116 37/89/86
f 37/89/86 107/122/116 108/123/117
f 40/62/60 37/89/86 95/108/103
f 95/108/103 37/89/86 108/123/117
f 92/124/100 110/125/118 91/126/101
f 91/126/101 110/125/118 109/127/119
f 93/128/102 91/126/101 111/129/120
f 111/129/120 91/126/101 109/127/119
f 94/130/104 95/131/103 112/132/121
f 112/132/121 95/131/103 113/133/122
f 96/134/105 94/130/104 114/135/123
f 114/135/123 94/130/104 112/132/121
f 97/136/106 96/134/105 115/137/124
f 115/137/124 96/134/105 114/135/123
f 98/138/107 97/136/106 116/139/125
f 116/139/125 97/136/106 115/137/124
f 98/138/107 116/139/125 99/140/108
f 99/140/108 116/139/125 117/141/126
f 99/140/108 117/141/126 100/142/109
f 100/142/109 117/141/126 118/143/127
f 100/142/109 118/143/127 101/144/110
f 101/144/110 118/143/127 119/145/128
f 101/144/110 119/145/128 102/146/111
f 102/146/111 119/145/128 120/147/129
f 102/146/111 120/147/129 103/148/112
f 103/148/112 120/147/129 121/149/130
f 103/148/112 121/149/130 104/150/113
f 104/150/113 121/149/130 122/151/131
f 104/150/113 122/151/131 105/152/114
f 105/152/114 122/151/131 123/153/132
f 105/152/114 123/153/132 92/124/100
f 92/124/100 123/153/132 110/125/118
f 106/154/115 93/128/102 124/155/133
f 124/155/133 93/128/102 111/129/120
f 107/156/116 106/154/115 125/157/134
f 125/157/134 106/154/115 124/155/133
f 108/158/117 107/156/116 126/159/135
f 126/159/135 107/156/116 125/157/134
f 95/131/103 108/158/117 113/133/122
f 113/133/122 108/158/117 126/159/135
f 135/160/136 127/161/137 129/162/138
f 129/162/138 127/161/137 128/163/139
f 131/164/140 135/160/136 130/165/141
f 135/160/136 129/162/138 130/165/141
f 135/160/136 131/164/140 133/166/142
f 133/166/142 131/164/140 132/167/143
f 133/166/142 134/168/144 135/160/136
f 110/125/118 123/153/132 127/161/137
f 127/161/137 123/153/132 128/163/139
f 123/153/132 122/151/131 128/163/139
f 122/151/131 121/149/130 128/163/139
f 128/163/139 121/149/130 129/162/138
f 121/149/130 120/147/129 129/162/138
f 120/147/129 119/145/128 129/162/138
f 129/162/138 119/145/128 130/165/141
f 119/145/128 118/143/127 130/165/141
f 118/143/127 117/141/126 130/165/141
f 130/165/141 117/141/126 131/164/140
f 117/141/126 116/139/125 131/164/140
f 116/139/125 115/137/124 131/164/140
f 131/164/140 115/137/124 132/167/143
f 115/137/124 114/135/123 132/167/143
f 114/135/123 112/132/121 132/167/143
f 132/167/143 112/132/121 133/166/142
f 112/132/121 113/133/122 133/166/142
f 113/133/122 126/159/135 133/166/142
f 133/166/142 126/159/135 134/168/144
f 126/159/135 125/157/134 134/168/144
f 125/157/134 124/155/133 134/168/144
f 134/168/144 124/155/133 135/160/136
f 124/155/133 111/129/120 135/160/136
f 111/129/120 109/127/119 135/160/136
f 135/160/136 109/127/119 127/161/137
f 109/127/119 110/125/118 127/161/137
