# Blender v2.80 (sub 60) OBJ File: ''
# www.blender.org
mtllib oculus_quest_controller.mtl
v 0.002027 -0.025933 0.014154
v 0.001331 -0.027230 0.012102
v 0.002241 -0.020604 0.025281
v 0.002142 -0.033942 0.030780
v 0.002134 -0.032351 0.032943
v -0.000780 -0.039134 0.019342
v 0.002641 -0.023669 0.018539
v 0.002393 -0.024826 0.016267
v 0.002588 -0.021551 0.022923
v 0.002677 -0.022647 0.020620
v 0.001809 -0.035939 0.026732
v 0.000271 -0.038373 0.021571
v 0.001222 -0.037093 0.024379
v 0.007920 -0.029324 0.021224
v 0.008452 -0.028052 0.023491
v 0.005769 -0.025985 0.013073
v 0.006581 -0.026608 0.013606
v 0.004315 -0.027348 0.011289
v 0.005127 -0.027999 0.011799
v 0.006778 -0.024801 0.015125
v 0.007468 -0.025554 0.015417
v 0.006722 -0.036913 0.019634
v 0.005930 -0.037917 0.019984
v 0.005248 -0.037759 0.017517
v 0.004462 -0.038720 0.017891
v 0.008111 -0.024259 0.017882
v 0.007393 -0.023505 0.017577
v 0.007943 -0.021205 0.022193
v 0.008647 -0.022088 0.022243
v 0.008441 -0.023039 0.020253
v 0.007707 -0.022321 0.019921
v 0.008454 -0.034885 0.023893
v 0.007822 -0.035704 0.024610
v 0.007601 -0.036057 0.021567
v 0.006961 -0.036868 0.022266
v 0.008585 -0.021165 0.024703
v 0.007847 -0.020298 0.024638
v 0.009485 -0.032541 0.028241
v 0.008923 -0.033243 0.029168
v 0.009110 -0.031555 0.031245
v 0.009638 -0.031056 0.030083
v 0.008859 -0.025850 0.027107
v 0.008750 -0.026874 0.025473
v 0.008674 -0.023659 0.030504
v 0.008826 -0.024737 0.031143
v 0.001393 -0.021034 0.030829
v 0.001320 -0.021801 0.031968
v 0.007816 -0.021698 0.030417
v 0.007764 -0.020936 0.029317
v 0.007968 -0.023117 0.031741
v 0.008131 -0.024256 0.032410
v 0.008387 -0.025756 0.032889
v 0.008594 -0.027069 0.033015
v 0.009013 -0.025829 0.031525
v 0.009208 -0.027067 0.031687
v 0.001514 -0.025887 0.034696
v 0.001646 -0.027200 0.034874
v 0.008512 -0.021869 0.028562
v 0.008564 -0.022618 0.029574
v 0.001311 -0.023377 0.033506
v 0.001373 -0.024513 0.034215
v 0.002037 -0.034732 0.012096
v 0.002682 -0.034324 0.012746
v 0.000490 -0.035233 0.011408
v 0.001101 -0.031725 0.010089
v 0.000666 -0.033037 0.010400
v 0.002449 -0.031737 0.010920
v 0.002121 -0.032939 0.011232
v 0.000253 -0.028923 0.010850
v -0.000559 -0.030169 0.010502
v 0.001858 -0.030180 0.009994
v 0.002697 -0.028981 0.010265
v 0.002331 -0.036239 0.013317
v 0.002777 -0.037001 0.014241
v 0.000902 -0.037039 0.012866
v 0.001452 -0.037864 0.013861
v 0.003785 -0.029393 0.011008
v 0.003040 -0.030474 0.010793
v -0.002023 -0.038937 0.015806
v -0.001551 -0.039277 0.017064
v 0.003234 -0.038902 0.016382
v 0.002374 -0.038646 0.015228
v 0.003486 -0.037632 0.015318
v 0.004265 -0.037869 0.016350
v -0.002870 -0.036999 0.013260
v -0.002670 -0.037897 0.014264
v -0.002635 -0.035287 0.011925
v -0.001615 -0.031760 0.010615
v -0.002238 -0.033120 0.010933
v 0.001565 -0.020366 0.029221
v 0.001796 -0.020196 0.027665
v 0.007793 -0.020103 0.026315
v 0.007767 -0.020310 0.027797
v 0.001971 -0.030538 0.034240
v 0.001839 -0.029145 0.034743
v 0.008997 -0.030148 0.032272
v 0.008839 -0.028773 0.032812
v 0.009399 -0.028389 0.031579
v 0.009556 -0.029703 0.031116
v 0.008510 -0.021331 0.027395
v 0.008536 -0.021077 0.026021
v 0.005300 -0.032497 0.015542
v 0.004319 -0.033252 0.014327
v 0.003457 -0.033830 0.013432
v 0.008854 -0.025012 0.028383
v 0.008785 -0.024309 0.029451
v 0.006316 -0.031563 0.017155
v 0.007201 -0.030511 0.019059
v 0.002046 -0.033693 0.011531
v 0.000531 -0.034178 0.010840
v -0.002483 -0.034246 0.011365
v 0.002171 -0.035663 0.012775
v 0.000649 -0.036179 0.012073
v -0.002799 -0.036186 0.012528
v 0.008923 -0.025712 0.030533
v 0.009039 -0.026736 0.029846
v 0.009092 -0.027830 0.028891
v 0.009025 -0.029039 0.027485
v 0.008730 -0.030391 0.025500
v 0.008069 -0.031942 0.022771
v 0.007283 -0.033165 0.020475
v 0.006372 -0.034150 0.018504
v 0.005277 -0.034959 0.016755
v 0.004302 -0.035426 0.015465
v 0.003460 -0.035626 0.014431
v 0.002723 -0.035613 0.013512
v 0.008574 -0.022853 0.028385
v 0.008617 -0.023156 0.027118
v 0.008622 -0.023683 0.025683
v 0.008548 -0.024565 0.023793
v 0.008291 -0.025612 0.021779
v 0.007843 -0.026797 0.019567
v 0.007168 -0.027989 0.017391
v 0.006279 -0.029093 0.015521
v 0.005172 -0.030210 0.013933
v 0.004102 -0.031250 0.012878
v 0.003256 -0.032142 0.012243
v 0.002621 -0.033014 0.011874
v 0.009665 -0.029783 0.031831
v 0.009756 -0.031218 0.030742
v 0.009590 -0.032814 0.028765
v 0.008492 -0.035304 0.024147
v 0.007591 -0.036538 0.021692
v 0.006641 -0.037470 0.019601
v 0.005088 -0.038356 0.017372
v 0.004015 -0.038483 0.016090
v 0.003182 -0.038230 0.014984
v 0.002402 -0.037542 0.013806
v 0.001868 -0.036729 0.012820
v 0.001651 -0.035956 0.012095
v 0.001527 -0.035096 0.011498
v 0.001538 -0.034163 0.010967
v 0.001643 -0.033145 0.010565
v 0.002053 -0.031861 0.010237
v 0.002700 -0.030487 0.010108
v 0.003500 -0.029330 0.010342
v 0.004957 -0.027824 0.011211
v 0.006490 -0.026361 0.013114
v 0.007443 -0.025230 0.015059
v 0.008118 -0.023865 0.017657
v 0.008463 -0.022583 0.020154
v 0.008684 -0.021555 0.022294
v 0.008615 -0.020585 0.024887
v 0.008562 -0.020475 0.026330
v 0.008535 -0.020736 0.027795
v 0.008536 -0.021317 0.029078
v 0.008591 -0.022109 0.030158
v 0.008713 -0.023263 0.031197
v 0.008875 -0.024409 0.031876
v 0.009082 -0.025620 0.032293
v 0.009290 -0.026937 0.032458
v 0.009500 -0.028388 0.032331
vt 0.557676 0.341458
vt 0.556434 0.334926
vt 0.545349 0.342528
vt 0.545402 0.335143
vt 0.524117 0.402359
vt 0.525764 0.394087
vt 0.513228 0.399936
vt 0.513895 0.390829
vt 0.749200 0.132440
vt 0.738281 0.132440
vt 0.745698 0.150883
vt 0.733503 0.145929
vt 0.760426 0.132440
vt 0.758554 0.154478
vt 0.529191 0.372408
vt 0.530710 0.361092
vt 0.516449 0.369628
vt 0.517951 0.358314
vt 0.772386 0.156365
vt 0.773112 0.132440
vt 0.556904 0.363141
vt 0.543581 0.362755
vt 0.555764 0.375049
vt 0.542111 0.374703
vt 0.784903 0.132440
vt 0.784661 0.157156
vt 0.797240 0.157190
vt 0.796066 0.132440
vt 0.881030 0.164661
vt 0.893086 0.164254
vt 0.880836 0.132440
vt 0.892333 0.132440
vt 0.808522 0.157533
vt 0.807267 0.132440
vt 0.527495 0.384026
vt 0.515042 0.380831
vt 0.915715 0.132440
vt 0.915278 0.162482
vt 0.552836 0.397268
vt 0.539973 0.388750
vt 0.929057 0.161293
vt 0.927882 0.132440
vt 0.532118 0.350780
vt 0.533536 0.341531
vt 0.519618 0.348067
vt 0.521827 0.338511
vt 0.945213 0.158893
vt 0.939671 0.132440
vt 0.557420 0.353229
vt 0.544630 0.352260
vt 0.957296 0.156849
vt 0.951090 0.132440
vt 0.835008 0.161463
vt 0.833331 0.132440
vt 0.830086 0.160669
vt 0.827549 0.132440
vt 0.841571 0.132440
vt 0.842704 0.162707
vt 0.847362 0.132440
vt 0.847601 0.163314
vt 0.859904 0.132440
vt 0.854140 0.132440
vt 0.858005 0.164164
vt 0.852915 0.163776
vt 0.545621 0.412977
vt 0.549582 0.406930
vt 0.534744 0.406637
vt 0.537515 0.399075
vt 0.522660 0.408836
vt 0.514040 0.412243
vt 0.521430 0.414249
vt 0.514971 0.417475
vt 0.513299 0.406588
vt 0.534873 0.334031
vt 0.524582 0.331022
vt 0.716523 0.132440
vt 0.711989 0.132440
vt 0.711854 0.143777
vt 0.706236 0.144399
vt 0.718437 0.142507
vt 0.724296 0.142907
vt 0.724135 0.132440
vt 0.728986 0.132440
vt 0.985740 0.148797
vt 0.977541 0.132440
vt 0.980617 0.150540
vt 0.972925 0.132440
vt 0.958881 0.132440
vt 0.967277 0.153719
vt 0.963518 0.132440
vt 0.973078 0.152170
vt 0.982807 0.132440
vt 0.988909 0.147178
vt 0.707646 0.132440
vt 0.703304 0.132440
vt 0.702987 0.144472
vt 0.699738 0.144544
vt 0.814223 0.132440
vt 0.817900 0.158795
vt 0.819017 0.132449
vt 0.823940 0.159682
vt 0.865559 0.164664
vt 0.871753 0.164809
vt 0.867161 0.132440
vt 0.873574 0.132440
vt 0.540976 0.416712
vt 0.531727 0.412148
vt 0.535710 0.419076
vt 0.528597 0.416460
vt 0.554129 0.329889
vt 0.544780 0.329293
vt 0.535997 0.328123
vt 0.527412 0.325641
vt 0.545802 0.321801
vt 0.541921 0.319915
vt 0.543483 0.324295
vt 0.536974 0.323192
vt 0.550152 0.325264
vt 0.530503 0.321687
vt 0.533672 0.318124
vt 0.523992 0.319621
vt 0.537931 0.318554
vt 0.525592 0.420403
vt 0.520361 0.419498
vt 0.510442 0.414558
vt 0.506398 0.410537
vt 0.992079 0.145559
vt 0.988074 0.132440
vt 0.503284 0.405394
vt 0.501647 0.399996
vt 0.501564 0.388577
vt 0.502319 0.378893
vt 0.503592 0.367092
vt 0.505061 0.354649
vt 0.506607 0.344934
vt 0.509656 0.333756
vt 0.514143 0.326298
vt 0.518359 0.322329
vt 0.529367 0.318216
vt 0.530539 0.420275
vt 0.506970 0.421080
vt 0.511965 0.424216
vt 0.509172 0.417668
vt 0.513962 0.420719
vt 0.519044 0.426750
vt 0.519780 0.422854
vt 0.525016 0.427954
vt 0.525396 0.423869
vt 0.532197 0.427602
vt 0.530913 0.423696
vt 0.537319 0.426063
vt 0.536226 0.422377
vt 0.545022 0.422550
vt 0.542136 0.419717
vt 0.550052 0.418125
vt 0.547017 0.415741
vt 0.554527 0.411549
vt 0.551223 0.409402
vt 0.558462 0.399995
vt 0.554704 0.399097
vt 0.561689 0.376093
vt 0.557834 0.375430
vt 0.562872 0.363732
vt 0.559010 0.362884
vt 0.563524 0.351585
vt 0.559579 0.352212
vt 0.563675 0.339384
vt 0.559844 0.339832
vt 0.561778 0.330110
vt 0.558507 0.332623
vt 0.559410 0.324852
vt 0.556170 0.327406
vt 0.554098 0.318471
vt 0.551800 0.322261
vt 0.549383 0.314619
vt 0.547132 0.318537
vt 0.544406 0.312486
vt 0.542859 0.316559
vt 0.539429 0.310354
vt 0.538498 0.314975
vt 0.534053 0.310296
vt 0.533839 0.314611
vt 0.528678 0.310239
vt 0.529199 0.314641
vt 0.523568 0.311767
vt 0.523628 0.316132
vt 0.515519 0.315319
vt 0.517250 0.319149
vt 0.510131 0.320663
vt 0.512633 0.323607
vt 0.505095 0.329908
vt 0.508090 0.331569
vt 0.501752 0.341716
vt 0.504904 0.343288
vt 0.499839 0.353437
vt 0.503238 0.353700
vt 0.498207 0.366275
vt 0.501679 0.366813
vt 0.496856 0.378223
vt 0.500320 0.379261
vt 0.495894 0.389699
vt 0.499515 0.389661
vt 0.495850 0.401575
vt 0.499603 0.401692
vt 0.497827 0.408909
vt 0.501327 0.407519
vt 0.501113 0.414813
vt 0.504596 0.413018
vn 0.8140 -0.1458 -0.5623
vn 0.7729 -0.1697 -0.6114
vn 0.8412 -0.1922 -0.5055
vn 0.7976 -0.2511 -0.5485
vn 0.9955 0.0592 -0.0734
vn 0.9929 0.0125 -0.1179
vn 0.9986 0.0362 -0.0396
vn 0.9975 -0.0210 -0.0674
vn -0.0377 0.8468 -0.5305
vn -0.0618 0.7499 -0.6586
vn -0.1190 0.8697 -0.4790
vn -0.1380 0.7643 -0.6299
vn -0.0330 0.8809 -0.4721
vn -0.1192 0.8884 -0.4434
vn 0.9709 -0.0920 -0.2211
vn 0.9462 -0.1481 -0.2876
vn 0.9755 -0.1427 -0.1673
vn 0.9476 -0.2181 -0.2332
vn -0.1191 0.8912 -0.4377
vn -0.0339 0.8905 -0.4538
vn 0.9324 -0.0444 -0.3587
vn 0.9395 -0.0774 -0.3338
vn 0.9610 0.0008 -0.2765
vn 0.9652 -0.0291 -0.2600
vn -0.0396 0.8959 -0.4425
vn -0.1175 0.8939 -0.4326
vn -0.1061 0.9106 -0.3994
vn -0.0363 0.9187 -0.3933
vn 0.2448 -0.6784 0.6927
vn 0.2076 -0.8466 0.4900
vn 0.2887 -0.6870 0.6668
vn 0.2588 -0.8393 0.4782
vn -0.0736 0.9613 -0.2657
vn -0.0242 0.9618 -0.2728
vn 0.9844 -0.0410 -0.1708
vn 0.9888 -0.0807 -0.1258
vn 0.2440 -0.8848 0.3969
vn 0.1853 -0.8897 0.4172
vn 0.9762 0.0436 -0.2125
vn 0.9773 0.0128 -0.2114
vn 0.1741 -0.9103 0.3756
vn 0.2268 -0.9111 0.3443
vn 0.9055 -0.2036 -0.3724
vn 0.8529 -0.2521 -0.4572
vn 0.8983 -0.2880 -0.3318
vn 0.8347 -0.3355 -0.4368
vn 0.1623 -0.9360 0.3124
vn 0.2197 -0.9340 0.2818
vn 0.8864 -0.0906 -0.4539
vn 0.8992 -0.1260 -0.4190
vn 0.1173 -0.9815 0.1511
vn 0.1776 -0.9707 0.1619
vn 0.1485 0.7328 0.6641
vn 0.1855 0.7426 0.6436
vn 0.1017 0.8689 0.4845
vn 0.1406 0.8797 0.4543
vn 0.2196 0.6201 0.7532
vn 0.1790 0.6206 0.7634
vn 0.2590 0.4213 0.8692
vn 0.2180 0.4280 0.8771
vn 0.2992 0.0162 0.9541
vn 0.2844 0.2418 0.9277
vn 0.2559 0.0421 0.9658
vn 0.2402 0.2543 0.9368
vn 0.9847 0.1430 -0.0995
vn 0.9841 0.1087 -0.1405
vn 0.9913 0.0929 -0.0929
vn 0.9871 0.0613 -0.1480
vn 0.9949 0.0957 -0.0317
vn 0.9949 0.1004 0.0009
vn 0.9929 0.1186 -0.0032
vn 0.9967 0.0766 -0.0278
vn 0.9972 0.0742 -0.0095
vn 0.8046 -0.2839 -0.5216
vn 0.7919 -0.3329 -0.5119
vn -0.1145 -0.0750 -0.9906
vn -0.1049 -0.2559 -0.9610
vn -0.1829 -0.0804 -0.9798
vn -0.1643 -0.2576 -0.9522
vn -0.1956 0.1463 -0.9697
vn -0.1807 0.5219 -0.8337
vn -0.1180 0.1703 -0.9783
vn -0.1015 0.5260 -0.8444
vn -0.0837 -0.7169 -0.6921
vn -0.0223 -0.7363 -0.6763
vn -0.0580 -0.8033 -0.5927
vn 0.0126 -0.8265 -0.5628
vn 0.1162 -0.9909 -0.0684
vn 0.0625 -0.9942 -0.0878
vn 0.0608 -0.9214 -0.3838
vn -0.0131 -0.8982 -0.4395
vn -0.0453 -0.6340 -0.7720
vn -0.1025 -0.6099 -0.7858
vn -0.0853 -0.4055 -0.9101
vn -0.0691 -0.5247 -0.8485
vn -0.1460 -0.4019 -0.9040
vn -0.1230 -0.5090 -0.8519
vn 0.0178 0.9996 -0.0239
vn -0.0179 0.9995 -0.0250
vn 0.0959 0.9632 0.2512
vn 0.0568 0.9546 0.2923
vn 0.2658 -0.1514 0.9520
vn 0.2629 -0.4433 0.8569
vn 0.3107 -0.1937 0.9305
vn 0.3045 -0.4569 0.8358
vn 0.9848 0.1466 -0.0929
vn 0.9924 0.1134 -0.0488
vn 0.9851 0.1484 -0.0873
vn 0.9921 0.1226 -0.0257
vn 0.7660 -0.1960 -0.6122
vn 0.7579 -0.2883 -0.5852
vn 0.7631 -0.3133 -0.5653
vn 0.7627 -0.3347 -0.5534
vn 0.7903 -0.2394 -0.5640
vn 0.7939 -0.2821 -0.5387
vn 0.7472 -0.3106 -0.5876
vn 0.7465 -0.3303 -0.5775
vn 0.7692 -0.2129 -0.6025
vn 0.7495 -0.3277 -0.5752
vn 0.7831 -0.3070 -0.5408
vn 0.7739 -0.3807 -0.5061
vn 0.7885 -0.2915 -0.5416
vn 0.9922 0.1127 -0.0531
vn 0.9944 0.1021 -0.0267
vn 0.9997 0.0236 -0.0067
vn 0.9996 0.0231 0.0173
vn 0.9996 0.0139 0.0247
vn 0.9996 -0.0147 0.0232
vn 0.9981 -0.0588 -0.0202
vn 0.9905 -0.1126 -0.0785
vn 0.9776 -0.1762 -0.1148
vn 0.9455 -0.2576 -0.1993
vn 0.8833 -0.3389 -0.3241
vn 0.8091 -0.4098 -0.4213
vn 0.7659 -0.4390 -0.4698
vn 0.7654 -0.4115 -0.4949
vn 0.7766 -0.3382 -0.5315
vn 0.9854 0.1387 -0.0986
vn 0.8242 0.5007 0.2647
vn 0.8344 0.4365 0.3365
vn 0.8334 0.4024 0.3787
vn 0.8609 0.3179 0.3972
vn 0.8650 0.2472 0.4366
vn 0.8849 0.1360 0.4455
vn 0.8793 0.0173 0.4759
vn 0.8941 -0.1499 0.4221
vn 0.8847 -0.3452 0.3134
vn 0.8338 -0.5245 0.1723
vn 0.8176 -0.5715 0.0697
vn 0.7711 -0.6365 -0.0155
vn 0.7455 -0.6477 -0.1570
vn 0.6485 -0.7008 -0.2974
vn 0.5751 -0.6755 -0.4615
vn 0.5314 -0.5919 -0.6061
vn 0.4939 -0.5580 -0.6668
vn 0.4681 -0.5374 -0.7015
vn 0.4803 -0.4899 -0.7275
vn 0.4516 -0.4518 -0.7694
vn 0.4647 -0.4003 -0.7898
vn 0.4388 -0.3549 -0.8255
vn 0.4530 -0.3019 -0.8388
vn 0.4655 -0.2118 -0.8593
vn 0.4864 -0.0055 -0.8737
vn 0.5753 0.1576 -0.8026
vn 0.6785 0.3269 -0.6579
vn 0.7168 0.4631 -0.5213
vn 0.7411 0.5249 -0.4186
vn 0.7174 0.5848 -0.3786
vn 0.7625 0.5900 -0.2655
vn 0.7069 0.6899 -0.1563
vn 0.7791 0.6254 0.0444
vn 0.7916 0.5820 0.1863
usemtl oculus_quest_controller
s 1
f 24/1/1 84/2/2 123/3/3
f 123/3/3 84/2/2 124/4/4
f 42/5/5 43/6/6 129/7/7
f 129/7/7 43/6/6 130/8/8
f 16/9/9 18/10/10 1/11/11
f 1/11/11 18/10/10 2/12/12
f 20/13/13 16/9/9 8/14/14
f 8/14/14 16/9/9 1/11/11
f 14/15/15 108/16/16 132/17/17
f 132/17/17 108/16/16 133/18/18
f 7/19/19 27/20/20 8/14/14
f 8/14/14 27/20/20 20/13/13
f 34/21/21 121/22/22 32/23/23
f 32/23/23 121/22/22 120/24/24
f 27/20/20 7/19/19 31/25/25
f 31/25/25 7/19/19 10/26/26
f 9/27/27 28/28/28 10/26/26
f 10/26/26 28/28/28 31/25/25
f 5/29/29 4/30/30 40/31/31
f 40/31/31 4/30/30 39/32/32
f 3/33/33 37/34/34 9/27/27
f 9/27/27 37/34/34 28/28/28
f 15/35/35 14/15/15 131/36/36
f 131/36/36 14/15/15 132/17/17
f 33/37/37 39/32/32 11/38/38
f 11/38/38 39/32/32 4/30/30
f 38/39/39 32/23/23 119/40/40
f 119/40/40 32/23/23 120/24/24
f 11/38/38 13/41/41 33/37/37
f 33/37/37 13/41/41 35/42/42
f 107/43/43 102/44/44 134/45/45
f 134/45/45 102/44/44 135/46/46
f 12/47/47 23/48/48 13/41/41
f 13/41/41 23/48/48 35/42/42
f 24/1/1 123/3/3 22/49/49
f 22/49/49 123/3/3 122/50/50
f 6/51/51 25/52/52 12/47/47
f 12/47/47 25/52/52 23/48/48
f 47/53/53 48/54/54 46/55/55
f 46/55/55 48/54/54 49/56/56
f 50/57/57 60/58/58 51/59/59
f 51/59/59 60/58/58 61/60/60
f 53/61/61 52/62/62 57/63/63
f 57/63/63 52/62/62 56/64/64
f 60/58/58 50/57/57 47/53/53
f 47/53/53 50/57/57 48/54/54
f 52/62/62 51/59/59 56/64/64
f 56/64/64 51/59/59 61/60/60
f 99/65/65 41/66/66 117/67/67
f 117/67/67 41/66/66 118/68/68
f 118/68/68 41/66/66 38/39/39
f 105/69/69 127/70/70 106/71/71
f 106/71/71 127/70/70 59/72/72
f 105/69/69 128/73/73 127/70/70
f 43/6/6 15/35/35 130/8/8
f 130/8/8 15/35/35 131/36/36
f 38/39/39 119/40/40 118/68/68
f 103/74/74 136/75/75 102/44/44
f 102/44/44 136/75/75 135/46/46
f 65/76/76 66/77/77 88/78/78
f 88/78/78 66/77/77 89/79/79
f 70/80/80 69/81/81 71/82/82
f 71/82/82 69/81/81 72/83/83
f 85/84/84 75/85/85 86/86/86
f 86/86/86 75/85/85 76/87/87
f 81/88/88 80/89/89 82/90/90
f 82/90/90 80/89/89 79/91/91
f 69/81/81 2/12/12 72/83/83
f 72/83/83 2/12/12 18/10/10
f 80/89/89 81/88/88 6/51/51
f 6/51/51 81/88/88 25/52/52
f 82/90/90 79/91/91 76/87/87
f 76/87/87 79/91/91 86/86/86
f 75/85/85 85/84/84 113/92/92
f 113/92/92 85/84/84 114/93/93
f 88/78/78 70/80/80 65/76/76
f 65/76/76 70/80/80 71/82/82
f 110/94/94 64/95/95 111/96/96
f 111/96/96 64/95/95 87/97/97
f 92/98/98 91/99/99 93/100/100
f 93/100/100 91/99/99 90/101/101
f 95/102/102 94/103/103 97/104/104
f 97/104/104 94/103/103 96/105/105
f 91/99/99 92/98/98 3/33/33
f 3/33/33 92/98/98 37/34/34
f 94/103/103 5/29/29 96/105/105
f 96/105/105 5/29/29 40/31/31
f 93/100/100 90/101/101 49/56/56
f 49/56/56 90/101/101 46/55/55
f 57/63/63 95/102/102 53/61/61
f 53/61/61 95/102/102 97/104/104
f 98/106/106 116/107/107 55/108/108
f 55/108/108 116/107/107 115/109/109
f 84/2/2 83/110/110 124/4/4
f 124/4/4 83/110/110 125/111/111
f 104/112/112 137/113/113 103/74/74
f 103/74/74 137/113/113 136/75/75
f 73/114/114 112/115/115 126/116/116
f 126/116/116 112/115/115 63/117/117
f 73/114/114 126/116/116 74/118/118
f 74/118/118 126/116/116 125/111/111
f 104/112/112 63/117/117 138/119/119
f 138/119/119 63/117/117 109/120/120
f 104/112/112 138/119/119 137/113/113
f 137/113/113 138/119/119 67/121/121
f 109/120/120 63/117/117 62/122/122
f 62/122/122 63/117/117 112/115/115
f 125/111/111 83/110/110 74/118/118
f 99/65/65 117/67/67 98/106/106
f 98/106/106 117/67/67 116/107/107
f 105/69/69 42/5/5 128/73/73
f 128/73/73 42/5/5 129/7/7
f 45/123/123 115/109/109 106/71/71
f 106/71/71 115/109/109 105/69/69
f 45/123/123 106/71/71 44/124/124
f 44/124/124 106/71/71 59/72/72
f 59/72/72 127/70/70 58/125/125
f 58/125/125 127/70/70 100/126/126
f 100/126/126 127/70/70 128/73/73
f 22/49/49 122/50/50 34/21/21
f 34/21/21 122/50/50 121/22/22
f 108/16/16 107/43/43 133/18/18
f 133/18/18 107/43/43 134/45/45
f 111/96/96 89/79/79 110/94/94
f 110/94/94 89/79/79 66/77/77
f 114/93/93 87/127/97 113/92/92
f 113/92/92 87/127/97 64/128/95
f 116/107/107 105/69/69 115/109/109
f 116/107/107 117/67/67 105/69/69
f 105/69/69 117/67/67 42/5/5
f 117/67/67 118/68/68 42/5/5
f 42/5/5 118/68/68 43/6/6
f 118/68/68 119/40/40 43/6/6
f 43/6/6 119/40/40 15/35/35
f 119/40/40 120/24/24 15/35/35
f 15/35/35 120/24/24 14/15/15
f 120/24/24 121/22/22 14/15/15
f 14/15/15 121/22/22 108/16/16
f 121/22/22 122/50/50 108/16/16
f 108/16/16 122/50/50 107/43/43
f 123/3/3 102/44/44 122/50/50
f 122/50/50 102/44/44 107/43/43
f 123/3/3 124/4/4 102/44/44
f 102/44/44 124/4/4 103/74/74
f 124/4/4 125/111/111 103/74/74
f 103/74/74 125/111/111 104/112/112
f 63/117/117 104/112/112 126/116/116
f 126/116/116 104/112/112 125/111/111
f 100/126/126 128/73/73 101/129/127
f 101/129/127 128/73/73 129/7/7
f 129/7/7 36/130/128 101/129/127
f 129/7/7 130/8/8 36/130/128
f 36/130/128 130/8/8 29/131/129
f 130/8/8 131/36/36 29/131/129
f 29/131/129 131/36/36 30/132/130
f 131/36/36 132/17/17 30/132/130
f 30/132/130 132/17/17 26/133/131
f 132/17/17 133/18/18 26/133/131
f 26/133/131 133/18/18 21/134/132
f 133/18/18 134/45/45 21/134/132
f 21/134/132 134/45/45 17/135/133
f 134/45/45 135/46/46 17/135/133
f 17/135/133 135/46/46 19/136/134
f 136/75/75 77/137/135 135/46/46
f 135/46/46 77/137/135 19/136/134
f 137/113/113 78/138/136 136/75/75
f 136/75/75 78/138/136 77/137/135
f 67/121/121 78/138/136 137/113/113
f 109/120/120 68/139/137 138/119/119
f 138/119/119 68/139/137 67/121/121
f 45/123/123 54/140/138 115/109/109
f 115/109/109 54/140/138 55/108/108
f 49/141/56 48/142/54 166/143/139
f 166/143/139 48/142/54 167/144/140
f 50/145/57 168/146/141 48/142/54
f 48/142/54 168/146/141 167/144/140
f 51/147/59 169/148/142 50/145/57
f 50/145/57 169/148/142 168/146/141
f 52/149/62 170/150/143 51/147/59
f 51/147/59 170/150/143 169/148/142
f 53/151/61 171/152/144 52/149/62
f 52/149/62 171/152/144 170/150/143
f 97/153/104 172/154/145 53/151/61
f 53/151/61 172/154/145 171/152/144
f 96/155/105 139/156/146 97/153/104
f 97/153/104 139/156/146 172/154/145
f 96/155/105 40/157/31 139/156/146
f 139/156/146 40/157/31 140/158/147
f 40/157/31 39/159/32 140/158/147
f 140/158/147 39/159/32 141/160/148
f 39/159/32 33/161/37 141/160/148
f 141/160/148 33/161/37 142/162/149
f 33/161/37 35/163/42 142/162/149
f 142/162/149 35/163/42 143/164/150
f 35/163/42 23/165/48 143/164/150
f 143/164/150 23/165/48 144/166/151
f 25/167/52 145/168/152 23/165/48
f 23/165/48 145/168/152 144/166/151
f 81/169/88 146/170/153 25/167/52
f 25/167/52 146/170/153 145/168/152
f 82/171/90 147/172/154 81/169/88
f 81/169/88 147/172/154 146/170/153
f 76/173/87 148/174/155 82/171/90
f 82/171/90 148/174/155 147/172/154
f 75/175/85 149/176/156 76/173/87
f 76/173/87 149/176/156 148/174/155
f 113/177/92 150/178/157 75/175/85
f 75/175/85 150/178/157 149/176/156
f 64/179/95 151/180/158 113/177/92
f 113/177/92 151/180/158 150/178/157
f 64/179/95 110/181/94 151/180/158
f 151/180/158 110/181/94 152/182/159
f 110/181/94 66/183/77 152/182/159
f 152/182/159 66/183/77 153/184/160
f 66/183/77 65/185/76 153/184/160
f 153/184/160 65/185/76 154/186/161
f 65/185/76 71/187/82 154/186/161
f 154/186/161 71/187/82 155/188/162
f 71/187/82 72/189/83 155/188/162
f 155/188/162 72/189/83 156/190/163
f 72/189/83 18/191/10 156/190/163
f 156/190/163 18/191/10 157/192/164
f 18/191/10 16/193/9 157/192/164
f 157/192/164 16/193/9 158/194/165
f 16/193/9 20/195/13 158/194/165
f 158/194/165 20/195/13 159/196/166
f 27/197/20 160/198/167 20/195/13
f 20/195/13 160/198/167 159/196/166
f 27/197/20 31/199/25 160/198/167
f 160/198/167 31/199/25 161/200/168
f 31/199/25 28/201/28 161/200/168
f 161/200/168 28/201/28 162/202/169
f 28/201/28 37/203/34 162/202/169
f 162/202/169 37/203/34 163/204/170
f 37/203/34 92/205/98 163/204/170
f 163/204/170 92/205/98 164/206/171
f 92/205/98 93/207/100 164/206/171
f 164/206/171 93/207/100 165/208/172
f 93/207/100 49/141/56 165/208/172
f 165/208/172 49/141/56 166/143/139
f 41/66/66 99/65/65 140/158/147
f 140/158/147 99/65/65 139/156/146
f 38/39/39 41/66/66 141/160/148
f 141/160/148 41/66/66 140/158/147
f 32/23/23 38/39/39 142/162/149
f 142/162/149 38/39/39 141/160/148
f 32/23/23 142/162/149 34/21/21
f 34/21/21 142/162/149 143/164/150
f 34/21/21 143/164/150 22/49/49
f 22/49/49 143/164/150 144/166/151
f 22/49/49 144/166/151 24/1/1
f 24/1/1 144/166/151 145/168/152
f 24/1/1 145/168/152 84/2/2
f 84/2/2 145/168/152 146/170/153
f 84/2/2 146/170/153 83/110/110
f 83/110/110 146/170/153 147/172/154
f 83/110/110 147/172/154 74/118/118
f 74/118/118 147/172/154 148/174/155
f 74/118/118 148/174/155 73/114/114
f 73/114/114 148/174/155 149/176/156
f 73/114/114 149/176/156 112/115/115
f 112/115/115 149/176/156 150/178/157
f 112/115/115 150/178/157 62/122/122
f 62/122/122 150/178/157 151/180/158
f 109/120/120 62/122/122 152/182/159
f 152/182/159 62/122/122 151/180/158
f 68/139/137 109/120/120 153/184/160
f 153/184/160 109/120/120 152/182/159
f 67/121/121 68/139/137 154/186/161
f 154/186/161 68/139/137 153/184/160
f 78/138/136 67/121/121 155/188/162
f 155/188/162 67/121/121 154/186/161
f 77/137/135 78/138/136 156/190/163
f 156/190/163 78/138/136 155/188/162
f 19/136/134 77/137/135 157/192/164
f 157/192/164 77/137/135 156/190/163
f 17/135/133 19/136/134 158/194/165
f 158/194/165 19/136/134 157/192/164
f 21/134/132 17/135/133 159/196/166
f 159/196/166 17/135/133 158/194/165
f 26/133/131 21/134/132 160/198/167
f 160/198/167 21/134/132 159/196/166
f 26/133/131 160/198/167 30/132/130
f 30/132/130 160/198/167 161/200/168
f 30/132/130 161/200/168 29/131/129
f 29/131/129 161/200/168 162/202/169
f 29/131/129 162/202/169 36/130/128
f 36/130/128 162/202/169 163/204/170
f 36/130/128 163/204/170 101/129/127
f 101/129/127 163/204/170 164/206/171
f 101/129/127 164/206/171 100/126/126
f 100/126/126 164/206/171 165/208/172
f 100/126/126 165/208/172 58/125/125
f 58/125/125 165/208/172 166/143/139
f 58/125/125 166/143/139 59/72/72
f 59/72/72 166/143/139 167/144/140
f 59/72/72 167/144/140 44/124/124
f 44/124/124 167/144/140 168/146/141
f 44/124/124 168/146/141 45/123/123
f 45/123/123 168/146/141 169/148/142
f 45/123/123 169/148/142 54/140/138
f 54/140/138 169/148/142 170/150/143
f 55/108/108 54/140/138 171/152/144
f 171/152/144 54/140/138 170/150/143
f 171/152/144 172/154/145 55/108/108
f 55/108/108 172/154/145 98/106/106
f 99/65/65 98/106/106 139/156/146
f 139/156/146 98/106/106 172/154/145
