# Blender v2.80 (sub 60) OBJ File: ''
# www.blender.org
mtllib oculus_quest_controller.mtl
v 0.001490 -0.001182 0.005024
v -0.002430 -0.004337 0.001091
v -0.001162 -0.005458 0.008957
v -0.003426 -0.005088 0.006192
v -0.002540 -0.005304 0.007772
v -0.003713 -0.004834 0.004409
v -0.003367 -0.004573 0.002638
v 0.002533 -0.004029 -0.000597
v -0.001014 -0.004155 -0.000044
v 0.000709 -0.004048 -0.000630
v 0.004236 -0.004101 0.000051
v 0.006500 -0.004471 0.002815
v 0.006441 -0.004985 0.006369
v 0.005504 -0.005221 0.007916
v 0.002365 -0.005511 0.009637
v 0.004088 -0.005404 0.009051
v 0.005614 -0.004254 0.001236
v 0.006787 -0.004725 0.004598
v 0.000541 -0.005530 0.009604
v 0.002600 -0.002012 0.008134
v 0.004396 -0.001780 0.006694
v 0.004835 -0.001450 0.004446
v 0.003711 -0.001175 0.002443
v 0.001550 -0.001084 0.001621
v -0.000636 -0.001220 0.002365
v -0.001825 -0.001519 0.004327
v -0.001460 -0.001841 0.006589
v 0.000287 -0.002036 0.008092
v -0.000824 -0.002723 0.009012
v -0.001188 -0.003476 0.009243
v 0.000516 -0.003548 0.009891
v 0.000453 -0.002777 0.009498
v -0.002959 -0.002397 0.006563
v -0.003451 -0.003106 0.006479
v -0.002565 -0.003323 0.008058
v -0.002294 -0.002560 0.007748
v -0.003739 -0.002852 0.004696
v -0.003265 -0.002126 0.004661
v -0.003006 -0.001930 0.003332
v -0.003393 -0.002591 0.002924
v -0.002455 -0.002356 0.001378
v -0.002006 -0.001679 0.001681
v -0.000944 -0.001542 0.000830
v -0.001040 -0.002173 0.000243
v 0.000684 -0.002066 -0.000344
v 0.000895 -0.001428 0.000204
v 0.002263 -0.001414 0.000229
v 0.002507 -0.002047 -0.000311
v 0.004080 -0.001490 0.000920
v 0.004210 -0.002119 0.000337
v 0.005114 -0.001605 0.001809
v 0.005588 -0.002272 0.001522
v 0.006059 -0.001837 0.003494
v 0.006474 -0.002489 0.003101
v 0.006275 -0.002027 0.004832
v 0.006761 -0.002743 0.004884
v 0.006416 -0.003004 0.006656
v 0.005906 -0.002305 0.006722
v 0.005203 -0.002482 0.007882
v 0.005478 -0.003239 0.008202
v 0.002399 -0.002757 0.009533
v 0.002339 -0.003529 0.009924
v 0.004062 -0.003422 0.009337
v 0.003692 -0.002677 0.009093
vt 0.826458 0.917438
vt 0.798092 0.940866
vt 0.804762 0.904687
vt 0.779947 0.908862
vt 0.763618 0.928013
vt 0.763424 0.953179
vt 0.779451 0.972581
vt 0.804198 0.977144
vt 0.826091 0.964733
vt 0.834883 0.941152
vt 0.035574 0.292901
vt 0.035574 0.311303
vt 0.030234 0.292901
vt 0.030234 0.311303
vt 0.030234 0.274497
vt 0.035574 0.274497
vt 0.030234 0.256098
vt 0.035574 0.256098
vt 0.035574 0.329706
vt 0.035574 0.348108
vt 0.030234 0.329706
vt 0.030234 0.348108
vt 0.035574 0.366511
vt 0.030234 0.366511
vt 0.035574 0.384913
vt 0.030234 0.384913
vt 0.035574 0.403316
vt 0.030234 0.403316
vt 0.035574 0.421718
vt 0.030234 0.421718
vt 0.035574 0.440120
vt 0.030235 0.440120
vt 0.035574 0.102412
vt 0.035574 0.127283
vt 0.030235 0.102412
vt 0.030235 0.127283
vt 0.035574 0.145684
vt 0.030234 0.145684
vt 0.035574 0.164086
vt 0.030234 0.164086
vt 0.035574 0.182487
vt 0.030234 0.182487
vt 0.035574 0.200890
vt 0.030234 0.200890
vt 0.035574 0.219293
vt 0.030234 0.219293
vt 0.035574 0.237695
vt 0.030234 0.237695
vt 0.778813 0.891301
vt 0.765460 0.898869
vt 0.746091 0.929671
vt 0.751458 0.915287
vt 0.745927 0.951251
vt 0.751068 0.965715
vt 0.764810 0.982348
vt 0.778042 0.990124
vt 0.814393 0.991490
vt 0.799259 0.994036
vt 0.843125 0.969172
vt 0.833164 0.980850
vt 0.850667 0.948952
vt 0.850783 0.933600
vt 0.833781 0.901436
vt 0.843557 0.913268
vt 0.815180 0.890504
vt 0.800088 0.887722
vt 0.010029 0.440120
vt 0.010029 0.421718
vt 0.010028 0.403316
vt 0.010027 0.384913
vt 0.010027 0.366511
vt 0.010027 0.256098
vt 0.010027 0.274500
vt 0.010026 0.348108
vt 0.010027 0.237695
vt 0.010027 0.329706
vt 0.010026 0.219293
vt 0.010027 0.311303
vt 0.010026 0.200890
vt 0.010028 0.145684
vt 0.010028 0.164086
vt 0.010027 0.292901
vt 0.010027 0.182487
vt 0.010030 0.102412
vt 0.010029 0.127283
vn 0.1969 0.9444 0.2633
vn -0.0128 0.9896 0.1431
vn 0.0673 0.9277 0.3672
vn -0.0996 0.9260 0.3642
vn -0.2257 0.9400 0.2557
vn -0.2520 0.9633 0.0925
vn -0.1662 0.9849 -0.0491
vn -0.0085 0.9947 -0.1026
vn 0.1474 0.9881 -0.0434
vn 0.2285 0.9683 0.1011
vn -0.3080 0.7516 0.5833
vn -0.4260 0.7703 0.4744
vn -0.5138 0.0423 0.8569
vn -0.7633 0.0582 0.6434
vn -0.1813 0.0166 0.9833
vn -0.0940 0.7563 0.6474
vn 0.1471 0.0318 0.9886
vn 0.0675 0.7363 0.6733
vn -0.5404 0.7918 0.2849
vn -0.5598 0.8189 0.1267
vn -0.9353 0.1122 0.3356
vn -0.9891 0.1464 0.0132
vn -0.5354 0.8394 -0.0938
vn -0.9202 0.2088 -0.3312
vn -0.4304 0.8766 -0.2151
vn -0.7531 0.2400 -0.6126
vn -0.2757 0.8838 -0.3779
vn -0.4755 0.2869 -0.8316
vn -0.1148 0.9079 -0.4031
vn -0.1656 0.2951 -0.9410
vn 0.1080 0.8964 -0.4300
vn 0.1906 0.3100 -0.9314
vn 0.2495 0.9044 -0.3461
vn 0.4984 0.2859 -0.8185
vn 0.4294 0.8768 -0.2164
vn 0.7665 0.2672 -0.5840
vn 0.5025 0.8615 -0.0731
vn 0.9282 0.2169 -0.3023
vn 0.5554 0.8198 0.1393
vn 0.9827 0.1786 0.0482
vn 0.4992 0.8151 0.2940
vn 0.9228 0.1202 0.3660
vn 0.4002 0.7742 0.4903
vn 0.7381 0.0857 0.6692
vn 0.2710 0.7631 0.5867
vn 0.4846 0.0411 0.8738
vn 0.1896 0.1429 -0.9714
vn -0.1576 0.1393 -0.9776
vn -0.4858 0.1189 -0.8659
vn -0.7554 0.0842 -0.6498
vn -0.9339 0.0393 -0.3553
vn 0.1576 -0.1393 0.9776
vn -0.1896 -0.1429 0.9714
vn -0.9998 -0.0104 -0.0179
vn 0.4858 -0.1189 0.8659
vn -0.9451 -0.0587 0.3216
vn 0.7554 -0.0842 0.6498
vn -0.7763 -0.1000 0.6223
vn 0.9339 -0.0393 0.3553
vn 0.7763 0.1000 -0.6223
vn 0.9451 0.0587 -0.3216
vn -0.5140 -0.1293 0.8480
vn 0.9998 0.0104 0.0179
vn 0.5140 0.1293 -0.8480
usemtl oculus_quest_controller
s 1
f 21/1/1 1/2/2 20/3/3
f 1/2/2 28/4/4 20/3/3
f 28/4/4 1/2/2 27/5/5
f 1/2/2 26/6/6 27/5/5
f 26/6/6 1/2/2 25/7/7
f 1/2/2 24/8/8 25/7/7
f 24/8/8 1/2/2 23/9/9
f 1/2/2 22/10/10 23/9/9
f 21/1/1 22/10/10 1/2/2
f 29/11/11 36/12/12 30/13/13
f 36/12/12 35/14/14 30/13/13
f 30/13/13 31/15/15 29/11/11
f 31/15/15 32/16/16 29/11/11
f 31/15/15 62/17/17 32/16/16
f 62/17/17 61/18/18 32/16/16
f 33/19/19 38/20/20 34/21/21
f 38/20/20 37/22/22 34/21/21
f 34/21/21 35/14/14 33/19/19
f 35/14/14 36/12/12 33/19/19
f 38/20/20 39/23/23 37/22/22
f 39/23/23 40/24/24 37/22/22
f 39/23/23 42/25/25 40/24/24
f 42/25/25 41/26/26 40/24/24
f 42/25/25 43/27/27 41/26/26
f 43/27/27 44/28/28 41/26/26
f 43/27/27 46/29/29 44/28/28
f 46/29/29 45/30/30 44/28/28
f 46/29/29 47/31/31 45/30/30
f 47/31/31 48/32/32 45/30/30
f 47/33/31 49/34/33 48/35/32
f 49/34/33 50/36/34 48/35/32
f 49/34/33 51/37/35 50/36/34
f 51/37/35 52/38/36 50/36/34
f 51/37/35 53/39/37 52/38/36
f 53/39/37 54/40/38 52/38/36
f 53/39/37 55/41/39 54/40/38
f 55/41/39 56/42/40 54/40/38
f 55/41/39 58/43/41 56/42/40
f 58/43/41 57/44/42 56/42/40
f 58/43/41 59/45/43 57/44/42
f 59/45/43 60/46/44 57/44/42
f 59/45/43 64/47/45 60/46/44
f 64/47/45 63/48/46 60/46/44
f 62/17/17 63/48/46 61/18/18
f 63/48/46 64/47/45 61/18/18
f 32/49/16 28/4/4 29/50/11
f 33/51/19 36/52/12 27/5/5
f 38/53/20 26/6/6 39/54/23
f 42/55/25 25/7/7 43/56/27
f 47/57/31 46/58/29 24/8/8
f 51/59/35 49/60/33 23/9/9
f 53/61/37 22/10/10 55/62/39
f 59/63/43 58/64/41 21/1/1
f 64/65/45 20/3/3 61/66/18
f 53/61/37 51/59/35 22/10/10
f 51/59/35 23/9/9 22/10/10
f 48/32/32 8/67/47 45/30/30
f 8/67/47 10/68/48 45/30/30
f 23/9/9 49/60/33 24/8/8
f 49/60/33 47/57/31 24/8/8
f 44/28/28 9/69/49 41/26/26
f 9/69/49 2/70/50 41/26/26
f 9/69/49 44/28/28 10/68/48
f 44/28/28 45/30/30 10/68/48
f 7/71/51 40/24/24 2/70/50
f 40/24/24 41/26/26 2/70/50
f 15/72/52 62/17/17 19/73/53
f 62/17/17 31/15/15 19/73/53
f 24/8/8 46/58/29 25/7/7
f 46/58/29 43/56/27 25/7/7
f 7/71/51 6/74/54 40/24/24
f 6/74/54 37/22/22 40/24/24
f 15/72/52 16/75/55 62/17/17
f 16/75/55 63/48/46 62/17/17
f 4/76/56 34/21/21 6/74/54
f 34/21/21 37/22/22 6/74/54
f 60/46/44 63/48/46 14/77/57
f 63/48/46 16/75/55 14/77/57
f 25/7/7 42/55/25 26/6/6
f 42/55/25 39/54/23 26/6/6
f 28/4/4 32/49/16 20/3/3
f 32/49/16 61/66/18 20/3/3
f 34/21/21 4/76/56 35/14/14
f 4/76/56 5/78/58 35/14/14
f 14/77/57 13/79/59 60/46/44
f 13/79/59 57/44/42 60/46/44
f 17/80/60 52/38/36 12/81/61
f 52/38/36 54/40/38 12/81/61
f 30/13/13 35/14/14 3/82/62
f 35/14/14 5/78/58 3/82/62
f 56/42/40 57/44/42 18/83/63
f 57/44/42 13/79/59 18/83/63
f 38/53/20 33/51/19 26/6/6
f 33/51/19 27/5/5 26/6/6
f 64/65/45 59/63/43 20/3/3
f 59/63/43 21/1/1 20/3/3
f 3/82/62 19/73/53 30/13/13
f 19/73/53 31/15/15 30/13/13
f 18/83/63 12/81/61 56/42/40
f 12/81/61 54/40/38 56/42/40
f 48/35/32 50/36/34 8/84/47
f 50/36/34 11/85/64 8/84/47
f 36/52/12 29/50/11 27/5/5
f 29/50/11 28/4/4 27/5/5
f 21/1/1 58/64/41 22/10/10
f 58/64/41 55/62/39 22/10/10
f 17/80/60 11/85/64 52/38/36
f 11/85/64 50/36/34 52/38/36
