# Blender v2.80 (sub 60) OBJ File: ''
# www.blender.org
mtllib oculus_quest_controller.mtl
v 0.009501 -0.007038 0.018449
v 0.014179 -0.007042 0.024028
v 0.013614 -0.007042 0.025579
v 0.012553 -0.007041 0.026843
v 0.011123 -0.007040 0.027667
v 0.005383 -0.007036 0.025575
v 0.007872 -0.007038 0.027666
v 0.013616 -0.007042 0.020826
v 0.011127 -0.007040 0.018736
v 0.012556 -0.007041 0.019562
v 0.004820 -0.007035 0.022374
v 0.007876 -0.007037 0.018735
v 0.006446 -0.007036 0.019559
v 0.005385 -0.007036 0.020823
v 0.014180 -0.007042 0.022378
v 0.004819 -0.007035 0.024024
v 0.009498 -0.007039 0.027953
v 0.006443 -0.007037 0.026840
v 0.004821 -0.005974 0.022374
v 0.007877 -0.005976 0.018735
v 0.006447 -0.005975 0.019559
v 0.005386 -0.005974 0.020823
v 0.009502 -0.005977 0.018449
v 0.011128 -0.005978 0.018736
v 0.012557 -0.005979 0.019562
v 0.014181 -0.005981 0.022378
v 0.013617 -0.005980 0.020826
v 0.005384 -0.005974 0.025576
v 0.007873 -0.005976 0.027666
v 0.009499 -0.005978 0.027953
v 0.006444 -0.005975 0.026840
v 0.004820 -0.005974 0.024024
v 0.013615 -0.005980 0.025579
v 0.012554 -0.005980 0.026843
v 0.011124 -0.005979 0.027667
v 0.014180 -0.005981 0.024028
vt 0.376559 0.987057
vt 0.357719 0.990409
vt 0.338870 0.987113
vt 0.338714 0.883564
vt 0.357553 0.880212
vt 0.376402 0.883507
vt 0.724424 0.125319
vt 0.707767 0.125319
vt 0.724428 0.114606
vt 0.707771 0.114606
vt 0.303360 0.925825
vt 0.309878 0.907834
vt 0.411882 0.925662
vt 0.405310 0.907689
vt 0.691115 0.114606
vt 0.691110 0.125319
vt 0.974235 0.125319
vt 0.974236 0.114606
vt 0.990889 0.125319
vt 0.990890 0.114606
vt 0.393117 0.977464
vt 0.322283 0.977571
vt 0.957581 0.125319
vt 0.957582 0.114606
vt 0.405393 0.962787
vt 0.309961 0.962931
vt 0.924274 0.125319
vt 0.924275 0.114606
vt 0.940927 0.125319
vt 0.940928 0.114606
vt 0.411912 0.944796
vt 0.303389 0.944959
vt 0.774397 0.114606
vt 0.791052 0.114606
vt 0.774392 0.125319
vt 0.791048 0.125319
vt 0.874316 0.125319
vt 0.874317 0.114606
vt 0.890969 0.125319
vt 0.890969 0.114606
vt 0.741084 0.114606
vt 0.757741 0.114606
vt 0.741080 0.125319
vt 0.757737 0.125319
vt 0.857663 0.125319
vt 0.841010 0.125319
vt 0.857665 0.114606
vt 0.841012 0.114606
vt 0.824359 0.114606
vt 0.824357 0.125319
vt 0.907621 0.125319
vt 0.907621 0.114606
vt 0.807706 0.114606
vt 0.807703 0.125319
vt 0.322156 0.893156
vt 0.392990 0.893049
vn 0.0007 1.0000 0.0001
vn 0.6431 -0.0004 -0.7658
vn 0.3424 -0.0002 -0.9396
vn 0.0004 0.0001 -1.0000
vn -0.3417 0.0003 -0.9398
vn -0.6425 0.0005 -0.7663
vn -0.9847 0.0007 -0.1740
vn -0.8658 0.0007 -0.5003
vn 0.9847 -0.0007 0.1740
vn 0.8658 -0.0007 0.5003
vn -0.6431 0.0004 0.7658
vn -0.8662 0.0006 0.4997
vn 0.8662 -0.0006 -0.4997
vn 0.9849 -0.0007 -0.1733
vn -0.3424 0.0002 0.9396
vn -0.0004 -0.0001 1.0000
vn 0.3417 -0.0003 0.9398
vn -0.9849 0.0007 0.1733
vn 0.6425 -0.0005 0.7663
usemtl oculus_quest_controller
s 1
f 29/1/1 30/2/1 35/3/1
f 24/4/1 23/5/1 20/6/1
f 10/7/2 9/8/3 25/9/2
f 9/8/3 24/10/3 25/9/2
f 26/11/1 27/12/1 19/13/1
f 27/12/1 22/14/1 19/13/1
f 24/10/3 9/8/3 23/15/4
f 9/8/3 1/16/4 23/15/4
f 12/17/5 20/18/5 1/19/4
f 20/18/5 23/20/4 1/19/4
f 29/1/1 35/3/1 31/21/1
f 35/3/1 34/22/1 31/21/1
f 13/23/6 21/24/6 12/17/5
f 21/24/6 20/18/5 12/17/5
f 31/21/1 34/22/1 28/25/1
f 34/22/1 33/26/1 28/25/1
f 11/27/7 19/28/7 14/29/8
f 19/28/7 22/30/8 14/29/8
f 19/13/1 32/31/1 26/11/1
f 32/31/1 36/32/1 26/11/1
f 14/29/8 22/30/8 13/23/6
f 22/30/8 21/24/6 13/23/6
f 32/31/1 28/25/1 36/32/1
f 28/25/1 33/26/1 36/32/1
f 36/33/9 33/34/10 2/35/9
f 33/34/10 3/36/10 2/35/9
f 18/37/11 31/38/11 6/39/12
f 31/38/11 28/40/12 6/39/12
f 27/41/13 26/42/14 8/43/13
f 26/42/14 15/44/14 8/43/13
f 7/45/15 17/46/16 29/47/15
f 17/46/16 30/48/16 29/47/15
f 26/42/14 36/33/9 15/44/14
f 36/33/9 2/35/9 15/44/14
f 31/38/11 18/37/11 29/47/15
f 18/37/11 7/45/15 29/47/15
f 25/9/2 27/41/13 10/7/2
f 27/41/13 8/43/13 10/7/2
f 35/49/17 30/48/16 5/50/17
f 30/48/16 17/46/16 5/50/17
f 16/51/18 32/52/18 11/27/7
f 32/52/18 19/28/7 11/27/7
f 33/34/10 34/53/19 3/36/10
f 34/53/19 4/54/19 3/36/10
f 25/55/1 21/56/1 27/12/1
f 21/56/1 22/14/1 27/12/1
f 6/39/12 28/40/12 16/51/18
f 28/40/12 32/52/18 16/51/18
f 34/53/19 35/49/17 4/54/19
f 35/49/17 5/50/17 4/54/19
f 24/4/1 20/6/1 25/55/1
f 20/6/1 21/56/1 25/55/1
